*
*
G04 PowerPCB (Build Number [351.51 ]) generated Gerber (RS-274-X) file*
G04 PC Version=2.1*
*
%IN "Tpa6211a1drb_inEVM1.pcb"*%
*
%MOIN*%
*
%FSLAX25Y25*%
*
*
*
*
G04 PC Standard Apertures*
*
*
G04 Thermal Relief Aperture macro.*
%AMTER*
1,1,$1,0,0*
1,0,$1-$2,0,0*
21,0,$3,$4,0,0,45*
21,0,$3,$4,0,0,135*
%
*
*
G04 Annular Aperture macro.*
%AMANN*
1,1,$1,0,0*
1,0,$2,0,0*
%
*
*
G04 Odd Aperture macro.*
%AMODD*
1,1,$1,0,0*
1,0,$1-0.005,0,0*
%
*
*
G04 PC Custom Aperture Macros*
*
*
*
*
*
*
G04 PC Aperture Table*
*
%ADD010C,0.01*%
%ADD011C,0.007*%
%ADD014C,0.012*%
%ADD015C,0.02*%
%ADD016R,0.03X0.03*%
%ADD017R,0.06X0.06*%
%ADD018R,0.01496X0.01496*%
%ADD019R,0.03937X0.03937*%
%ADD027C,0.08*%
%ADD028C,0.04*%
%ADD029C,0.024*%
%ADD030C,0.015*%
%ADD031C,0.03*%
%ADD032C,0.055*%
%ADD033C,0.06*%
*
*
*
*
G04 PC Custom Flashes*
G04 Layer Name Tpa6211a1drb_inEVM1.pcb - flashes*
%LPD*%
*
*
G04 PC Circuitry*
G04 Layer Name Tpa6211a1drb_inEVM1.pcb - circuitry*
%LPD*%
*
G54D10*
G01X0116800Y0059250D02*
X0111125D01*
Y0065750*
X0116800*
Y0059250*
X0111125Y0065548D02*
X0116800D01*
X0111125Y0064648D02*
X0116800D01*
X0111125Y0063748D02*
X0116800D01*
X0111125Y0062848D02*
X0116800D01*
X0111125Y0061948D02*
X0116800D01*
X0111125Y0061048D02*
X0116800D01*
X0111125Y0060148D02*
X0116800D01*
X0143250Y0017250D02*
Y0132750D01*
G75*
G03X0142750Y0133250I-0000500J0000000D01*
G01X0017250*
G03X0016750Y0132750I0000000J-0000500*
G01Y0017250*
G03X0017250Y0016750I0000500J0000000*
G01X0142750*
G03X0143250Y0017250I0000000J0000500*
G01X0139500Y0025000D02*
G03X0139500I-0004500D01*
G01X0132979Y0078822D02*
G03X0129917Y0089052I0002021J0006178D01*
G01X0132979Y0078822D02*
G03X0132680Y0078825I-0000155J-0000475D01*
G01X0132680D02*
X0131334Y0078423D01*
X0131334D02*
G03X0131042Y0077698I0000144J-0000478D01*
G01X0131159Y0072520D02*
G03X0131042Y0077698I-0004909J0002480D01*
G01X0131159Y0072520D02*
G03X0131439Y0071824I0000446J-0000224D01*
G01X0131439D02*
X0132982Y0071279D01*
X0132982D02*
G03X0133281Y0071268I0000167J0000471D01*
G01X0132154Y0059156D02*
G03X0133281Y0071268I0002846J0005844D01*
G01X0132153Y0059156D02*
G03X0131461Y0058866I-0000217J-0000449D01*
G01X0121335Y0058155D02*
G03X0131461Y0058866I0004915J0002470D01*
G01X0121335Y0058155D02*
G03X0121075Y0058394I-0000446J-0000224D01*
G01X0121075D02*
X0120965Y0058438D01*
X0120965D02*
G03X0120779Y0058474I-0000185J-0000463D01*
G01X0120779D02*
X0119750D01*
X0118750Y0058683D02*
G03X0119750Y0058474I0001000J0002292D01*
G01X0118749Y0058683D02*
G03X0118350I-0000199J-0000457D01*
G01X0117350Y0058474D02*
G03X0118350Y0058683I0000000J0002501D01*
G01X0117350Y0058474D02*
X0113550D01*
X0111049Y0060975D02*
G03X0113550Y0058474I0002501J0000000D01*
G01X0111049Y0060975D02*
Y0063975D01*
X0113550Y0066475D02*
G03X0111049Y0063975I0000000J-0002500D01*
G01X0113550Y0066475D02*
X0116057D01*
G03X0116521Y0067159I0000000J0000500*
G01X0116163Y0068718D02*
G03X0116521Y0067159I0005237J0000382D01*
G01X0116163Y0068718D02*
G03X0116073Y0068970I-0000497J-0000036D01*
G01X0115615Y0070413D02*
G03X0116073Y0068970I0002500J0000000D01*
G01X0115615Y0070413D02*
Y0071909D01*
X0115654Y0072352D02*
G03X0115615Y0071909I0002461J-0000442D01*
G01X0115654Y0072352D02*
G03Y0072529I-0000491J0000088D01*
G01X0115615Y0072972D02*
G03X0115654Y0072529I0002500J0000000D01*
G01X0115615Y0072972D02*
Y0074468D01*
X0115654Y0074911D02*
G03X0115615Y0074468I0002461J-0000442D01*
G01X0115654Y0074911D02*
G03Y0075088I-0000491J0000089D01*
G01X0115615Y0075531D02*
G03X0115654Y0075088I0002500J0000000D01*
G01X0115615Y0075531D02*
Y0077027D01*
X0115654Y0077470D02*
G03X0115615Y0077027I0002461J-0000442D01*
G01X0115654Y0077470D02*
G03Y0077647I-0000491J0000089D01*
G01X0115615Y0078090D02*
G03X0115654Y0077647I0002500J0000000D01*
G01X0115615Y0078090D02*
Y0079586D01*
X0115982Y0080890D02*
G03X0115615Y0079586I0002133J-0001303D01*
G01X0115982Y0080890D02*
G03X0116054Y0081129I-0000426J0000261D01*
G01X0119794Y0085929D02*
G03X0116054Y0081129I0001506J-0005029D01*
G01X0119794Y0085929D02*
X0129670Y0088885D01*
G03X0129917Y0089052I-0000143J0000479*
G01X0113134Y0079586D02*
Y0078090D01*
X0113095Y0077647D02*
G03X0113134Y0078090I-0002460J0000443D01*
G01X0113095Y0077647D02*
G03Y0077470I0000492J-0000087D01*
G01X0113134Y0077027D02*
G03X0113095Y0077470I-0002499J0000000D01*
G01X0113134Y0077027D02*
Y0075531D01*
X0113095Y0075088D02*
G03X0113134Y0075531I-0002460J0000443D01*
G01X0113095Y0075088D02*
G03Y0074911I0000492J-0000088D01*
G01X0113134Y0074468D02*
G03X0113095Y0074911I-0002499J0000000D01*
G01X0113134Y0074468D02*
Y0072972D01*
X0113095Y0072529D02*
G03X0113134Y0072972I-0002460J0000443D01*
G01X0113095Y0072529D02*
G03Y0072352I0000492J-0000088D01*
G01X0113134Y0071909D02*
G03X0113095Y0072352I-0002499J0000000D01*
G01X0113134Y0071909D02*
Y0070413D01*
X0110634Y0067913D02*
G03X0113134Y0070413I0000000J0002500D01*
G01X0110634Y0067913D02*
X0109378D01*
G03X0109362I0000000J-0000499*
G01X0109256Y0067911D02*
G03X0109362Y0067913I0000000J0003250D01*
G01X0109256Y0067911D02*
X0108939D01*
X0108939D02*
G03X0108586Y0067764I0000000J-0000499D01*
G01X0108586D02*
X0104521Y0063700D01*
G03X0104375Y0063346I0000354J-0000353*
G01X0104375D02*
Y0062250D01*
X0101875Y0059749D02*
G03X0104375Y0062250I0000000J0002501D01*
G01X0101875Y0059749D02*
X0098075D01*
X0097075Y0059958D02*
G03X0098075Y0059749I0001000J0002292D01*
G01X0097074Y0059958D02*
G03X0096675I-0000199J-0000457D01*
G01X0095675Y0059749D02*
G03X0096675Y0059958I0000000J0002501D01*
G01X0095675Y0059749D02*
X0093677D01*
X0093677D02*
G03X0093355Y0059632I0000000J-0000499D01*
G01X0093355D02*
X0052645Y0025319D01*
X0052645D02*
G03X0052473Y0025010I0000322J-0000381D01*
G01X0050000Y0022874D02*
G03X0052473Y0025010I0000000J0002501D01*
G01X0050000Y0022874D02*
X0046200D01*
X0045200Y0023083D02*
G03X0046200Y0022874I0001000J0002292D01*
G01X0045199Y0023083D02*
G03X0044800I-0000199J-0000457D01*
G01X0043800Y0022874D02*
G03X0044800Y0023083I0000000J0002501D01*
G01X0043800Y0022874D02*
X0041223D01*
X0041223D02*
G03X0040892Y0022749I0000000J-0000499D01*
G01X0032603Y0023939D02*
G03X0040892Y0022749I0004652J0002936D01*
G01X0032603Y0023939D02*
G03X0031765Y0023951I-0000422J-0000266D01*
G01X0031765D02*
X0031276Y0023224D01*
X0031276D02*
G03X0031213Y0023092I0000415J-0000278D01*
G01X0020450Y0029642D02*
G03X0031213Y0023092I0004550J-0004642D01*
G01X0020450Y0029642D02*
G03Y0030357I-0000349J0000358D01*
G01X0031464Y0035682D02*
G03X0020450Y0030357I-0006464J-0000682D01*
G01X0031464Y0035682D02*
G03X0032268Y0035340I0000497J0000053D01*
G01X0032268D02*
X0033978Y0036670D01*
X0036250Y0037450D02*
G03X0033978Y0036670I0000000J-0003700D01*
G01X0036250Y0037450D02*
X0038692D01*
G03X0038910Y0037500I0000000J0000500*
G01X0040000Y0037750D02*
G03X0038910Y0037500I0000000J-0002500D01*
G01X0040000Y0037750D02*
X0043800D01*
X0044800Y0037541D02*
G03X0043800Y0037750I-0001000J-0002291D01*
G01X0044800Y0037541D02*
G03X0045199I0000200J0000458D01*
G01X0046200Y0037750D02*
G03X0045200Y0037541I0000000J-0002500D01*
G01X0046200Y0037750D02*
X0046943D01*
G03X0047265Y0037868I0000000J0000500*
G01X0047265D02*
X0089413Y0073486D01*
X0089413D02*
G03X0089555Y0073681I-0000321J0000382D01*
G01X0090221Y0074625D02*
G03X0089555Y0073681I0001654J-0001875D01*
G01X0090221Y0074625D02*
G03Y0075374I-0000330J0000375D01*
G01X0089374Y0077250D02*
G03X0090221Y0075375I0002501J0000000D01*
G01X0089374Y0077250D02*
Y0080250D01*
X0091875Y0082750D02*
G03X0089374Y0080250I0000000J-0002500D01*
G01X0091875Y0082750D02*
X0095675D01*
X0096675Y0082541D02*
G03X0095675Y0082750I-0001000J-0002291D01*
G01X0096675Y0082541D02*
G03X0097074I0000200J0000458D01*
G01X0098075Y0082750D02*
G03X0097075Y0082541I0000000J-0002500D01*
G01X0098075Y0082750D02*
X0098708D01*
X0098708D02*
G03X0099062Y0083603I0000000J0000500D01*
G01X0099062D02*
X0097363Y0085302D01*
X0097363D02*
G03X0097010Y0085448I-0000352J-0000353D01*
G01X0097010D02*
X0064850D01*
X0062233Y0086532D02*
G03X0064850Y0085448I0002617J0002616D01*
G01X0062233Y0086532D02*
X0058033Y0090732D01*
X0056950Y0093305D02*
G03X0058033Y0090732I0003700J0000043D01*
G01X0056950Y0093305D02*
G03X0056450Y0093799I-0000499J-0000005D01*
G01X0056450D02*
X0055625D01*
X0053789Y0094287D02*
G03X0055625Y0093799I0001836J0003213D01*
G01X0053789Y0094287D02*
X0038289Y0103144D01*
X0038289D02*
X0035818Y0104556D01*
X0035818D02*
X0030694Y0107484D01*
X0030694D02*
G03X0030546Y0107540I-0000247J-0000433D01*
G01X0025748Y0108519*
X0025748D02*
G03X0025601Y0108527I-0000099J-0000488D01*
G01X0021982Y0120757D02*
G03X0025601Y0108527I0003018J-0005757D01*
G01X0021982Y0120757D02*
G03X0022075Y0121580I-0000231J0000443D01*
G01X0027924D02*
G03X0022075I-0002924J0003420D01*
G01X0027924D02*
G03X0028017Y0120757I0000325J-0000379D01*
G01X0030881Y0117767D02*
G03X0028017Y0120757I-0005881J-0002767D01*
G01X0030881Y0117767D02*
G03X0030962Y0117645I0000452J0000213D01*
G01X0030962D02*
X0034242Y0114008D01*
X0034242D02*
G03X0034365Y0113909I0000372J0000335D01*
G01X0034365D02*
X0037686Y0112011D01*
X0037686D02*
G03X0038208Y0112027I0000248J0000434D01*
G01X0038208D02*
X0039025Y0112562D01*
X0039025D02*
G03X0039251Y0112980I-0000273J0000418D01*
G01X0039251D02*
Y0114468D01*
X0041751Y0116968D02*
G03X0039251Y0114468I0000000J-0002499D01*
G01X0041751Y0116968D02*
X0049625D01*
X0052126Y0114468D02*
G03X0049625Y0116968I-0002500J0000000D01*
G01X0052126Y0114468D02*
Y0110531D01*
X0049625Y0108031D02*
G03X0052126Y0110531I0000000J0002500D01*
G01X0049625Y0108031D02*
X0046535D01*
G03X0046287Y0107097I0000000J-0000499*
G01X0056492Y0101265*
X0056492D02*
G03X0056740Y0101200I0000248J0000435D01*
G01X0057442*
G03X0057660Y0101250I0000000J0000500*
G01X0058750Y0101500D02*
G03X0057660Y0101250I0000000J-0002500D01*
G01X0058750Y0101500D02*
X0062550D01*
X0063550Y0101291D02*
G03X0062550Y0101500I-0001000J-0002291D01*
G01X0063550Y0101291D02*
G03X0063949I0000200J0000458D01*
G01X0064950Y0101500D02*
G03X0063950Y0101291I0000000J-0002500D01*
G01X0064950Y0101500D02*
X0065702D01*
G03X0066020Y0101614I0000000J0000500*
G01X0066020D02*
X0072713Y0107146D01*
X0072713D02*
G03X0072395Y0108031I-0000317J0000385D01*
G01X0065374*
X0062873Y0110531D02*
G03X0065374Y0108031I0002501J0000000D01*
G01X0062873Y0110531D02*
Y0114468D01*
X0065374Y0116968D02*
G03X0062873Y0114468I0000000J-0002499D01*
G01X0065374Y0116968D02*
X0073248D01*
X0075748Y0114468D02*
G03X0073248Y0116968I-0002499J0000000D01*
G01X0075748Y0114468D02*
Y0110715D01*
X0075748D02*
G03X0076566Y0110330I0000500J0000000D01*
G01X0076566D02*
X0079318Y0112604D01*
X0079318D02*
G03X0079499Y0112990I-0000318J0000386D01*
G01X0079499D02*
Y0121394D01*
X0079499D02*
G03X0079428Y0121651I-0000499J0000000D01*
G01X0090571D02*
G03X0079428I-0005571J0003349D01*
G01X0090571D02*
G03X0090500Y0121394I0000429J-0000256D01*
G01Y0118500*
G03X0091000Y0118000I0000500J0000000*
G01X0092500*
X0094583Y0116881D02*
G03X0092500Y0118000I-0002083J-0001381D01*
G01X0094583Y0116881D02*
G03X0095416I0000417J0000277D01*
G01X0097500Y0118000D02*
G03X0095416Y0116881I0000000J-0002500D01*
G01X0097500Y0118000D02*
X0103500D01*
X0106000Y0115500D02*
G03X0103500Y0118000I-0002500J0000000D01*
G01X0106000Y0115500D02*
Y0109500D01*
X0103500Y0106999D02*
G03X0106000Y0109500I0000000J0002501D01*
G01X0103500Y0106999D02*
X0097500D01*
X0095416Y0108118D02*
G03X0097500Y0106999I0002084J0001382D01*
G01X0095416Y0108118D02*
G03X0094583I-0000416J-0000276D01*
G01X0092500Y0106999D02*
G03X0094583Y0108118I0000000J0002501D01*
G01X0092500Y0106999D02*
X0086500D01*
X0085983Y0107054D02*
G03X0086500Y0106999I0000517J0002446D01*
G01X0085983Y0107054D02*
G03X0085806Y0107059I-0000103J-0000489D01*
G01X0084424Y0107030D02*
G03X0085806Y0107059I0000576J0005470D01*
G01X0084424Y0107030D02*
G03X0084054Y0106918I-0000051J-0000497D01*
G01X0071431Y0096486*
X0071431D02*
G03X0071250Y0096100I0000319J-0000385D01*
G01X0071250D02*
Y0096000D01*
X0069919Y0093790D02*
G03X0071250Y0096000I-0001169J0002210D01*
G01X0069919Y0093790D02*
G03X0070153Y0092848I0000234J-0000441D01*
G01X0070153D02*
X0098750D01*
X0101366Y0091764D02*
G03X0098750Y0092848I-0002616J-0002615D01*
G01X0101366Y0091764D02*
X0109889Y0083241D01*
X0110555Y0082333D02*
G03X0109889Y0083241I-0003281J-0001708D01*
G01X0110555Y0082333D02*
G03X0110938Y0082068I0000444J0000231D01*
G01X0113134Y0079586D02*
G03X0110938Y0082068I-0002499J0000000D01*
G01X0016750Y0131948D02*
X0143250D01*
X0087379Y0131048D02*
X0143250D01*
X0088967Y0130148D02*
X0143250D01*
X0089919Y0129248D02*
X0143250D01*
X0090571Y0128348D02*
X0143250D01*
X0091021Y0127448D02*
X0143250D01*
X0091312Y0126548D02*
X0143250D01*
X0091467Y0125648D02*
X0143250D01*
X0091495Y0124748D02*
X0143250D01*
X0091397Y0123848D02*
X0143250D01*
X0091167Y0122948D02*
X0143250D01*
X0090791Y0122048D02*
X0143250D01*
X0090500Y0121148D02*
X0143250D01*
X0090500Y0120248D02*
X0143250D01*
X0090500Y0119348D02*
X0143250D01*
X0090502Y0118448D02*
X0143250D01*
X0104932Y0117548D02*
X0143250D01*
X0105720Y0116648D02*
X0143250D01*
X0105987Y0115748D02*
X0143250D01*
X0106000Y0114848D02*
X0143250D01*
X0106000Y0113948D02*
X0143250D01*
X0106000Y0113048D02*
X0143250D01*
X0106000Y0112148D02*
X0143250D01*
X0106000Y0111248D02*
X0143250D01*
X0106000Y0110348D02*
X0143250D01*
X0105999Y0109448D02*
X0143250D01*
X0105811Y0108548D02*
X0143250D01*
X0105180Y0107648D02*
X0143250D01*
X0083849Y0106748D02*
X0143250D01*
X0082760Y0105848D02*
X0143250D01*
X0081671Y0104948D02*
X0143250D01*
X0080582Y0104048D02*
X0143250D01*
X0079493Y0103148D02*
X0143250D01*
X0078404Y0102248D02*
X0143250D01*
X0077315Y0101348D02*
X0143250D01*
X0076226Y0100448D02*
X0143250D01*
X0075137Y0099548D02*
X0143250D01*
X0074048Y0098648D02*
X0143250D01*
X0072959Y0097748D02*
X0143250D01*
X0071870Y0096848D02*
X0143250D01*
X0071249Y0095948D02*
X0143250D01*
X0071061Y0095048D02*
X0143250D01*
X0070430Y0094148D02*
X0143250D01*
X0069663Y0093248D02*
X0143250D01*
X0100607Y0092348D02*
X0143250D01*
X0135815Y0091448D02*
X0143250D01*
X0138385Y0090548D02*
X0143250D01*
X0139543Y0089648D02*
X0143250D01*
X0140310Y0088748D02*
X0143250D01*
X0140842Y0087848D02*
X0143250D01*
X0141201Y0086948D02*
X0143250D01*
X0141414Y0086048D02*
X0143250D01*
X0141498Y0085148D02*
X0143250D01*
X0141456Y0084248D02*
X0143250D01*
X0141286Y0083348D02*
X0143250D01*
X0140978Y0082448D02*
X0143250D01*
X0140508Y0081548D02*
X0143250D01*
X0139828Y0080648D02*
X0143250D01*
X0138830Y0079748D02*
X0143250D01*
X0137100Y0078848D02*
X0143250D01*
X0130978Y0077948D02*
X0143250D01*
X0131354Y0077048D02*
X0143250D01*
X0131628Y0076148D02*
X0143250D01*
X0131744Y0075248D02*
X0143250D01*
X0131711Y0074348D02*
X0143250D01*
X0131526Y0073448D02*
X0143250D01*
X0131173Y0072548D02*
X0143250D01*
X0131936Y0071648D02*
X0143250D01*
X0138033Y0070748D02*
X0143250D01*
X0139329Y0069848D02*
X0143250D01*
X0140163Y0068948D02*
X0143250D01*
X0140740Y0068048D02*
X0143250D01*
X0141134Y0067148D02*
X0143250D01*
X0141378Y0066248D02*
X0143250D01*
X0141490Y0065348D02*
X0143250D01*
X0141476Y0064448D02*
X0143250D01*
X0141335Y0063548D02*
X0143250D01*
X0141059Y0062648D02*
X0143250D01*
X0140628Y0061748D02*
X0143250D01*
X0140001Y0060848D02*
X0143250D01*
X0139090Y0059948D02*
X0143250D01*
X0137613Y0059048D02*
X0143250D01*
X0131161Y0058148D02*
X0143250D01*
X0130591Y0057248D02*
X0143250D01*
X0129708Y0056348D02*
X0143250D01*
X0128109Y0055448D02*
X0143250D01*
X0087324Y0054548D02*
X0143250D01*
X0086256Y0053648D02*
X0143250D01*
X0085188Y0052748D02*
X0143250D01*
X0084120Y0051848D02*
X0143250D01*
X0083053Y0050948D02*
X0143250D01*
X0081985Y0050048D02*
X0143250D01*
X0080917Y0049148D02*
X0143250D01*
X0079849Y0048248D02*
X0143250D01*
X0078781Y0047348D02*
X0143250D01*
X0077714Y0046448D02*
X0143250D01*
X0076646Y0045548D02*
X0143250D01*
X0075578Y0044648D02*
X0143250D01*
X0074510Y0043748D02*
X0143250D01*
X0073442Y0042848D02*
X0143250D01*
X0072375Y0041948D02*
X0143250D01*
X0071307Y0041048D02*
X0143250D01*
X0070239Y0040148D02*
X0143250D01*
X0069171Y0039248D02*
X0143250D01*
X0068104Y0038348D02*
X0143250D01*
X0067036Y0037448D02*
X0143250D01*
X0065968Y0036548D02*
X0143250D01*
X0064900Y0035648D02*
X0143250D01*
X0063832Y0034748D02*
X0143250D01*
X0062765Y0033848D02*
X0143250D01*
X0061697Y0032948D02*
X0143250D01*
X0060629Y0032048D02*
X0143250D01*
X0059561Y0031148D02*
X0143250D01*
X0058493Y0030248D02*
X0143250D01*
X0136157Y0029348D02*
X0143250D01*
X0137890Y0028448D02*
X0143250D01*
X0138708Y0027548D02*
X0143250D01*
X0139187Y0026648D02*
X0143250D01*
X0139437Y0025748D02*
X0143250D01*
X0139497Y0024848D02*
X0143250D01*
X0139375Y0023948D02*
X0143250D01*
X0139054Y0023048D02*
X0143250D01*
X0138481Y0022148D02*
X0143250D01*
X0137485Y0021248D02*
X0143250D01*
X0029540Y0020348D02*
X0143250D01*
X0028381Y0019448D02*
X0143250D01*
X0025794Y0018548D02*
X0143250D01*
X0016750Y0017648D02*
X0143250D01*
X0016759Y0132848D02*
X0143240D01*
X0101682Y0091448D02*
X0134184D01*
X0057426Y0029348D02*
X0133842D01*
X0030308Y0021248D02*
X0132514D01*
X0131570Y0059048D02*
X0132386D01*
X0056358Y0028448D02*
X0132109D01*
X0102582Y0090548D02*
X0131614D01*
X0040067Y0022148D02*
X0131518D01*
X0055290Y0027548D02*
X0131291D01*
X0050915Y0023048D02*
X0130945D01*
X0054222Y0026648D02*
X0130812D01*
X0052053Y0023948D02*
X0130624D01*
X0053154Y0025748D02*
X0130562D01*
X0052443Y0024848D02*
X0130502D01*
X0103482Y0089648D02*
X0130456D01*
X0104382Y0088748D02*
X0129214D01*
X0105282Y0087848D02*
X0126207D01*
X0088392Y0055448D02*
X0124390D01*
X0106182Y0086948D02*
X0123199D01*
X0089459Y0056348D02*
X0122791D01*
X0090527Y0057248D02*
X0121908D01*
X0091595Y0058148D02*
X0121338D01*
X0107082Y0086048D02*
X0120192D01*
X0107982Y0085148D02*
X0118215D01*
X0108882Y0084248D02*
X0117256D01*
X0109782Y0083348D02*
X0116656D01*
X0107969Y0067148D02*
X0116525D01*
X0110492Y0082448D02*
X0116283D01*
X0111446Y0068048D02*
X0116256D01*
X0112184Y0081548D02*
X0116090D01*
X0112660Y0068948D02*
X0116088D01*
X0112898Y0080648D02*
X0115851D01*
X0113070Y0069848D02*
X0115679D01*
X0113098Y0072548D02*
X0115651D01*
X0113118Y0075248D02*
X0115631D01*
X0113129Y0079748D02*
X0115620D01*
X0113130Y0077948D02*
X0115619D01*
X0113134Y0077048D02*
X0115615D01*
X0113134Y0078848D02*
X0115615D01*
X0113134Y0076148D02*
X0115615D01*
X0113134Y0074348D02*
X0115615D01*
X0113134Y0073448D02*
X0115615D01*
X0113134Y0071648D02*
X0115615D01*
X0113134Y0070748D02*
X0115615D01*
X0107069Y0066248D02*
X0112510D01*
X0092663Y0059048D02*
X0111956D01*
X0106169Y0065348D02*
X0111461D01*
X0102851Y0059948D02*
X0111270D01*
X0105269Y0064448D02*
X0111095D01*
X0103945Y0060848D02*
X0111053D01*
X0104417Y0063548D02*
X0111049D01*
X0104375Y0062648D02*
X0111049D01*
X0104324Y0061748D02*
X0111049D01*
X0016750Y0083348D02*
X0099199D01*
X0016750Y0084248D02*
X0098417D01*
X0016750Y0085148D02*
X0097517D01*
X0096651Y0059948D02*
X0097098D01*
X0093932Y0117548D02*
X0096067D01*
X0094180Y0107648D02*
X0095819D01*
X0016750Y0082448D02*
X0090685D01*
X0016750Y0075248D02*
X0090324D01*
X0016750Y0074348D02*
X0089952D01*
X0016750Y0081548D02*
X0089738D01*
X0016750Y0076148D02*
X0089630D01*
X0016750Y0080648D02*
X0089406D01*
X0016750Y0077048D02*
X0089383D01*
X0016750Y0079748D02*
X0089374D01*
X0016750Y0078848D02*
X0089374D01*
X0016750Y0077948D02*
X0089374D01*
X0016750Y0073448D02*
X0089369D01*
X0016750Y0072548D02*
X0088304D01*
X0016750Y0071648D02*
X0087239D01*
X0016750Y0070748D02*
X0086174D01*
X0016750Y0069848D02*
X0085109D01*
X0016750Y0068948D02*
X0084044D01*
X0016750Y0068048D02*
X0082979D01*
X0016750Y0131048D02*
X0082620D01*
X0016750Y0067148D02*
X0081914D01*
X0016750Y0130148D02*
X0081032D01*
X0016750Y0066248D02*
X0080849D01*
X0026482Y0129248D02*
X0080080D01*
X0016750Y0065348D02*
X0079784D01*
X0027752Y0121148D02*
X0079499D01*
X0028834Y0120248D02*
X0079499D01*
X0029831Y0119348D02*
X0079499D01*
X0030509Y0118448D02*
X0079499D01*
X0031049Y0117548D02*
X0079499D01*
X0074471Y0116648D02*
X0079499D01*
X0075395Y0115748D02*
X0079499D01*
X0075718Y0114848D02*
X0079499D01*
X0075748Y0113948D02*
X0079499D01*
X0075748Y0113048D02*
X0079499D01*
X0028006Y0128348D02*
X0079428D01*
X0028397Y0122048D02*
X0079208D01*
X0028775Y0127448D02*
X0078978D01*
X0029005Y0122948D02*
X0078832D01*
X0075748Y0112148D02*
X0078766D01*
X0016750Y0064448D02*
X0078719D01*
X0029225Y0126548D02*
X0078687D01*
X0029350Y0123848D02*
X0078602D01*
X0029453Y0125648D02*
X0078532D01*
X0029492Y0124748D02*
X0078504D01*
X0075748Y0111248D02*
X0077677D01*
X0016750Y0063548D02*
X0077654D01*
X0016750Y0062648D02*
X0076589D01*
X0075908Y0110348D02*
X0076588D01*
X0016750Y0061748D02*
X0075524D01*
X0016750Y0060848D02*
X0074459D01*
X0016750Y0059948D02*
X0073394D01*
X0046049Y0107648D02*
X0072881D01*
X0016750Y0059048D02*
X0072329D01*
X0046897Y0106748D02*
X0072232D01*
X0016750Y0058148D02*
X0071264D01*
X0048472Y0105848D02*
X0071143D01*
X0016750Y0057248D02*
X0070199D01*
X0050047Y0104948D02*
X0070054D01*
X0016750Y0056348D02*
X0069134D01*
X0051622Y0104048D02*
X0068965D01*
X0016750Y0055448D02*
X0068069D01*
X0053197Y0103148D02*
X0067876D01*
X0016750Y0054548D02*
X0067004D01*
X0054772Y0102248D02*
X0066787D01*
X0016750Y0053648D02*
X0065939D01*
X0016750Y0052748D02*
X0064874D01*
X0050849Y0116648D02*
X0064150D01*
X0063406Y0101348D02*
X0064093D01*
X0051148Y0108548D02*
X0063851D01*
X0016750Y0051848D02*
X0063809D01*
X0051773Y0115748D02*
X0063226D01*
X0051879Y0109448D02*
X0063120D01*
X0052096Y0114848D02*
X0062903D01*
X0052119Y0110348D02*
X0062880D01*
X0052126Y0113948D02*
X0062873D01*
X0052126Y0113048D02*
X0062873D01*
X0052126Y0112148D02*
X0062873D01*
X0052126Y0111248D02*
X0062873D01*
X0016750Y0086048D02*
X0062829D01*
X0016750Y0050948D02*
X0062744D01*
X0016750Y0086948D02*
X0061817D01*
X0016750Y0050048D02*
X0061679D01*
X0016750Y0087848D02*
X0060917D01*
X0016750Y0049148D02*
X0060614D01*
X0016750Y0088748D02*
X0060017D01*
X0016750Y0048248D02*
X0059549D01*
X0016750Y0089648D02*
X0059117D01*
X0016750Y0047348D02*
X0058484D01*
X0016750Y0090548D02*
X0058217D01*
X0056347Y0101348D02*
X0057893D01*
X0016750Y0091448D02*
X0057475D01*
X0016750Y0046448D02*
X0057419D01*
X0016750Y0092348D02*
X0057087D01*
X0016750Y0093248D02*
X0056951D01*
X0016750Y0045548D02*
X0056354D01*
X0016750Y0044648D02*
X0055289D01*
X0016750Y0043748D02*
X0054224D01*
X0016750Y0094148D02*
X0054056D01*
X0016750Y0042848D02*
X0053159D01*
X0016750Y0095048D02*
X0052457D01*
X0016750Y0041948D02*
X0052094D01*
X0027379Y0041048D02*
X0051029D01*
X0016750Y0095948D02*
X0050882D01*
X0028967Y0040148D02*
X0049964D01*
X0016750Y0096848D02*
X0049307D01*
X0029919Y0039248D02*
X0048899D01*
X0030571Y0038348D02*
X0047834D01*
X0016750Y0097748D02*
X0047732D01*
X0016750Y0098648D02*
X0046157D01*
X0044715Y0023048D02*
X0045284D01*
X0016750Y0099548D02*
X0044582D01*
X0016750Y0100448D02*
X0043007D01*
X0016750Y0101348D02*
X0041432D01*
X0031861Y0116648D02*
X0040528D01*
X0016750Y0102248D02*
X0039857D01*
X0032673Y0115748D02*
X0039604D01*
X0033485Y0114848D02*
X0039281D01*
X0034307Y0113948D02*
X0039251D01*
X0035872Y0113048D02*
X0039251D01*
X0037447Y0112148D02*
X0038393D01*
X0016750Y0103148D02*
X0038282D01*
X0016750Y0104048D02*
X0036707D01*
X0031021Y0037448D02*
X0036150D01*
X0016750Y0104948D02*
X0035132D01*
X0030841Y0022148D02*
X0034442D01*
X0031312Y0036548D02*
X0033821D01*
X0016750Y0105848D02*
X0033557D01*
X0031200Y0023048D02*
X0033304D01*
X0031468Y0035648D02*
X0032664D01*
X0031763Y0023948D02*
X0032597D01*
X0016750Y0106748D02*
X0031982D01*
X0016750Y0107648D02*
X0030015D01*
X0016750Y0108548D02*
X0024205D01*
X0016750Y0018548D02*
X0024205D01*
X0016750Y0129248D02*
X0023517D01*
X0016750Y0041048D02*
X0022620D01*
X0016750Y0121148D02*
X0022247D01*
X0016750Y0128348D02*
X0021993D01*
X0016750Y0109448D02*
X0021618D01*
X0016750Y0019448D02*
X0021618D01*
X0016750Y0122048D02*
X0021602D01*
X0016750Y0127448D02*
X0021224D01*
X0016750Y0120248D02*
X0021165D01*
X0016750Y0040148D02*
X0021032D01*
X0016750Y0122948D02*
X0020994D01*
X0016750Y0126548D02*
X0020774D01*
X0016750Y0123848D02*
X0020649D01*
X0016750Y0125648D02*
X0020546D01*
X0016750Y0030248D02*
X0020534D01*
X0016750Y0124748D02*
X0020507D01*
X0016750Y0110348D02*
X0020459D01*
X0016750Y0020348D02*
X0020459D01*
X0016750Y0119348D02*
X0020168D01*
X0016750Y0029348D02*
X0020168D01*
X0016750Y0039248D02*
X0020080D01*
X0016750Y0031148D02*
X0019763D01*
X0016750Y0111248D02*
X0019691D01*
X0016750Y0021248D02*
X0019691D01*
X0016750Y0118448D02*
X0019490D01*
X0016750Y0028448D02*
X0019490D01*
X0016750Y0038348D02*
X0019428D01*
X0016750Y0032048D02*
X0019208D01*
X0016750Y0112148D02*
X0019158D01*
X0016750Y0022148D02*
X0019158D01*
X0016750Y0117548D02*
X0019020D01*
X0016750Y0027548D02*
X0019020D01*
X0016750Y0037448D02*
X0018978D01*
X0016750Y0032948D02*
X0018832D01*
X0016750Y0113048D02*
X0018799D01*
X0016750Y0023048D02*
X0018799D01*
X0016750Y0116648D02*
X0018712D01*
X0016750Y0026648D02*
X0018712D01*
X0016750Y0036548D02*
X0018687D01*
X0016750Y0033848D02*
X0018602D01*
X0016750Y0113948D02*
X0018585D01*
X0016750Y0023948D02*
X0018585D01*
X0016750Y0115748D02*
X0018543D01*
X0016750Y0025748D02*
X0018543D01*
X0016750Y0035648D02*
X0018532D01*
X0016750Y0034748D02*
X0018504D01*
X0016750Y0114848D02*
X0018501D01*
X0016750Y0024848D02*
X0018501D01*
G54D11*
X0005000Y0005000D02*
Y0005500D01*
Y0005000D02*
X0005500D01*
X0005000D02*
Y0004500D01*
Y0005000D02*
X0004500D01*
X0006500D02*
X0009650D01*
X0005000Y0003500D02*
Y0000350D01*
Y0006500D02*
Y0009650D01*
X0000350Y0005000D02*
X0003500D01*
X0008000D02*
G03X0008000I-0003000D01*
G01X0007000D02*
G03X0007000I-0002000D01*
G01X0005000Y0145000D02*
Y0145500D01*
Y0145000D02*
X0005500D01*
X0005000D02*
Y0144500D01*
Y0145000D02*
X0004500D01*
X0006500D02*
X0009650D01*
X0005000Y0143500D02*
Y0140350D01*
Y0146500D02*
Y0149650D01*
X0000350Y0145000D02*
X0003500D01*
X0008000D02*
G03X0008000I-0003000D01*
G01X0007000D02*
G03X0007000I-0002000D01*
G01X0155000D02*
Y0145500D01*
Y0145000D02*
X0155500D01*
X0155000D02*
Y0144500D01*
Y0145000D02*
X0154500D01*
X0156500D02*
X0159650D01*
X0155000Y0143500D02*
Y0140350D01*
Y0146500D02*
Y0149650D01*
X0150350Y0145000D02*
X0153500D01*
X0158000D02*
G03X0158000I-0003000D01*
G01X0157000D02*
G03X0157000I-0002000D01*
G01X0155000Y0005000D02*
Y0005500D01*
Y0005000D02*
X0155500D01*
X0155000D02*
Y0004500D01*
Y0005000D02*
X0154500D01*
X0156500D02*
X0159650D01*
X0155000Y0003500D02*
Y0000350D01*
Y0006500D02*
Y0009650D01*
X0150350Y0005000D02*
X0153500D01*
X0158000D02*
G03X0158000I-0003000D01*
G01X0157000D02*
G03X0157000I-0002000D01*
G54D14*
G01X0048100Y0026875D02*
X0048750D01*
X0048100Y0033750D02*
X0048125D01*
X0092500Y0063750D02*
X0093775D01*
X0114164Y0065750D02*
X0114375Y0065960D01*
X0092500Y0071250D02*
X0093775D01*
G54D15*
X0114375Y0075000D03*
X0112918Y0072637D03*
X0115831D03*
Y0077362D03*
X0112918D03*
X0075015Y0116236D02*
X0072671Y0113891D01*
X0063606Y0108763D02*
X0065950Y0111108D01*
X0063606Y0116236D02*
X0065950Y0113891D01*
X0105267Y0117267D02*
X0102621Y0114621D01*
X0105267Y0107732D02*
X0102621Y0110378D01*
X0095732Y0107732D02*
X0098378Y0110378D01*
X0095732Y0117267D02*
X0098378Y0114621D01*
X0090107Y0075482D02*
X0092314Y0077689D01*
X0090107Y0082017D02*
X0092314Y0079810D01*
X0111782Y0059207D02*
X0113989Y0061414D01*
X0111782Y0065742D02*
X0113989Y0063535D01*
G54D16*
X0060250Y0097500D02*
X0061050D01*
X0066450D02*
X0067250D01*
X0041500Y0033750D02*
X0042300D01*
X0047700D02*
X0048500D01*
X0041500Y0026875D02*
X0042300D01*
X0047700D02*
X0048500D01*
X0122050Y0062475D02*
X0121250D01*
X0115850D02*
X0115050D01*
X0100375Y0078750D02*
X0099575D01*
X0094175D02*
X0093375D01*
Y0071250D02*
X0094175D01*
X0099575D02*
X0100375D01*
X0093375Y0063750D02*
X0094175D01*
X0099575D02*
X0100375D01*
G54D17*
X0089500Y0112500D03*
X0100500D03*
G54D18*
X0108626Y0078838D02*
X0109886D01*
X0108626Y0076279D02*
X0109886D01*
X0108626Y0073720D02*
X0109886D01*
X0108626Y0071161D02*
X0109886D01*
X0118863D02*
X0120123D01*
X0118863Y0073720D02*
X0120123D01*
X0118863Y0076279D02*
X0120123D01*
X0118863Y0078838D02*
X0120123D01*
G54D19*
X0067342Y0112500D02*
X0071279D01*
X0043720D02*
X0047657D01*
G54D27*
X0025000Y0115000D03*
Y0035000D03*
Y0025000D03*
X0135000Y0085000D03*
Y0065000D03*
X0105000Y0125000D03*
X0085000D03*
G54D28*
X0025000D03*
X0135000Y0025000D03*
G54D29*
X0031314Y0029911D02*
X0025347Y0027778D01*
X0029104Y0028192*
X0029104D02*
X0027778Y0024652D01*
X0027778D02*
X0031314Y0029911D01*
X0028657Y0027000D02*
X0029356D01*
X0029883Y0029400D02*
X0030970D01*
X0027000Y0027960D02*
Y0028369D01*
X0029400Y0027064D02*
Y0029227D01*
X0031945Y0111030D02*
X0027701Y0115736D01*
X0027701D02*
X0029514Y0112420D01*
X0029514D02*
X0025736Y0112298D01*
X0025736D02*
X0031945Y0111030D01*
X0028979Y0113400D02*
X0029809D01*
X0027000Y0112040D02*
Y0112339D01*
X0029400Y0111550D02*
Y0112416D01*
Y0112630D02*
Y0113853D01*
X0031800Y0111060D02*
Y0111192D01*
X0025000Y0025000D02*
X0036250Y0033750D01*
X0041900*
X0048750Y0026875D02*
X0092500Y0063750D01*
X0037255Y0026875D02*
X0041900D01*
X0048125Y0033750D02*
X0092500Y0071250D01*
X0037653Y0107769D02*
X0040125Y0106357D01*
X0055625Y0097500*
X0060650*
X0037653Y0107769D02*
X0038458D01*
X0045688Y0112500*
X0066850Y0097500D02*
X0085000Y0112500D01*
X0060650Y0097500D02*
Y0093348D01*
X0060650D02*
X0064850Y0089148D01*
X0064850D02*
X0098750D01*
X0098750D02*
X0107273Y0080625D01*
X0025000Y0115000D02*
X0037653Y0107769D01*
G54D30*
X0099975Y0063750D02*
X0107386Y0071161D01*
X0109256*
X0114375Y0076279D02*
X0119493D01*
X0107273Y0080625D02*
X0109256Y0078838D01*
X0099975Y0071250D02*
X0103154D01*
X0103154D02*
X0105625Y0073720D01*
X0109256*
X0099975Y0078750D02*
X0105625Y0076279D01*
X0105625D02*
X0109256D01*
X0119493Y0078838D02*
X0121300Y0080900D01*
X0119493Y0073720D02*
X0126250D01*
Y0075000*
X0119493Y0071161D02*
X0121400Y0069100D01*
G54D31*
X0121650Y0062475D02*
X0126250Y0060625D01*
G54D32*
X0114375Y0065960D02*
Y0075000D01*
Y0076279*
X0121300Y0080900D02*
X0135000Y0085000D01*
X0121400Y0069100D02*
X0128200Y0067400D01*
X0135000Y0065000*
X0085000Y0112500D02*
X0089500D01*
X0105000Y0125000D02*
X0100500Y0112500D01*
X0114375Y0098750*
Y0076279*
G54D33*
X0085000Y0125000D02*
Y0112500D01*
Y0125000*
X0037255Y0026875D03*
X0126250Y0060625D03*
Y0075000D03*
G74*
X0000000Y0000000D02*
M02*
