*
*
G04 PowerPCB (Build Number [351.51 ]) generated Gerber (RS-274-X) file*
G04 PC Version=2.1*
*
%IN "Tpa6211a1drb_inEVM1.pcb"*%
*
%MOIN*%
*
%FSLAX25Y25*%
*
*
*
*
G04 PC Standard Apertures*
*
*
G04 Thermal Relief Aperture macro.*
%AMTER*
1,1,$1,0,0*
1,0,$1-$2,0,0*
21,0,$3,$4,0,0,45*
21,0,$3,$4,0,0,135*
%
*
*
G04 Annular Aperture macro.*
%AMANN*
1,1,$1,0,0*
1,0,$2,0,0*
%
*
*
G04 Odd Aperture macro.*
%AMODD*
1,1,$1,0,0*
1,0,$1-0.005,0,0*
%
*
*
G04 PC Custom Aperture Macros*
*
*
*
*
*
*
G04 PC Aperture Table*
*
%ADD010C,0.01*%
%ADD011C,0.007*%
*
*
*
*
G04 PC Custom Flashes*
G04 Layer Name Tpa6211a1drb_inEVM1.pcb - flashes*
%LPD*%
*
*
G04 PC Circuitry*
G04 Layer Name Tpa6211a1drb_inEVM1.pcb - circuitry*
%LPD*%
*
G54D10*
G01X0015000Y0015000D02*
X0145000D01*
Y0135000*
X0015000*
Y0015000*
G54D11*
X0005000Y0005000D02*
Y0005500D01*
Y0005000D02*
X0005500D01*
X0005000D02*
Y0004500D01*
Y0005000D02*
X0004500D01*
X0006500D02*
X0009650D01*
X0005000Y0003500D02*
Y0000350D01*
Y0006500D02*
Y0009650D01*
X0000350Y0005000D02*
X0003500D01*
X0008000D02*
G75*
G03X0008000I-0003000D01*
G01X0007000D02*
G03X0007000I-0002000D01*
G01X0005000Y0145000D02*
Y0145500D01*
Y0145000D02*
X0005500D01*
X0005000D02*
Y0144500D01*
Y0145000D02*
X0004500D01*
X0006500D02*
X0009650D01*
X0005000Y0143500D02*
Y0140350D01*
Y0146500D02*
Y0149650D01*
X0000350Y0145000D02*
X0003500D01*
X0008000D02*
G03X0008000I-0003000D01*
G01X0007000D02*
G03X0007000I-0002000D01*
G01X0155000D02*
Y0145500D01*
Y0145000D02*
X0155500D01*
X0155000D02*
Y0144500D01*
Y0145000D02*
X0154500D01*
X0156500D02*
X0159650D01*
X0155000Y0143500D02*
Y0140350D01*
Y0146500D02*
Y0149650D01*
X0150350Y0145000D02*
X0153500D01*
X0158000D02*
G03X0158000I-0003000D01*
G01X0157000D02*
G03X0157000I-0002000D01*
G01X0155000Y0005000D02*
Y0005500D01*
Y0005000D02*
X0155500D01*
X0155000D02*
Y0004500D01*
Y0005000D02*
X0154500D01*
X0156500D02*
X0159650D01*
X0155000Y0003500D02*
Y0000350D01*
Y0006500D02*
Y0009650D01*
X0150350Y0005000D02*
X0153500D01*
X0158000D02*
G03X0158000I-0003000D01*
G01X0157000D02*
G03X0157000I-0002000D01*
G74*
G01X0000000Y0000000D02*
M02*
