*
*
G04 PowerPCB (Build Number [351.51 ]) generated Gerber (RS-274-X) file*
G04 PC Version=2.1*
*
%IN "Tpa6211a1drb_inEVM1.pcb"*%
*
%MOIN*%
*
%FSLAX25Y25*%
*
*
*
*
G04 PC Standard Apertures*
*
*
G04 Thermal Relief Aperture macro.*
%AMTER*
1,1,$1,0,0*
1,0,$1-$2,0,0*
21,0,$3,$4,0,0,45*
21,0,$3,$4,0,0,135*
%
*
*
G04 Annular Aperture macro.*
%AMANN*
1,1,$1,0,0*
1,0,$2,0,0*
%
*
*
G04 Odd Aperture macro.*
%AMODD*
1,1,$1,0,0*
1,0,$1-0.005,0,0*
%
*
*
G04 PC Custom Aperture Macros*
*
*
*
*
*
*
G04 PC Aperture Table*
*
%ADD010C,0.01*%
%ADD011C,0.007*%
%ADD020R,0.031X0.031*%
%ADD021C,0.081*%
%ADD022R,0.061X0.061*%
%ADD023C,0.041*%
%ADD024C,0.021*%
%ADD025R,0.01596X0.01596*%
%ADD026R,0.04037X0.04037*%
*
*
*
*
G04 PC Custom Flashes*
G04 Layer Name Tpa6211a1drb_inEVM1.pcb - flashes*
%LPD*%
*
*
G04 PC Circuitry*
G04 Layer Name Tpa6211a1drb_inEVM1.pcb - circuitry*
%LPD*%
*
G54D10*
G01X0116630Y0071858D02*
Y0078141D01*
X0116630D02*
X0112119D01*
X0112119D02*
Y0071858D01*
X0116630*
X0112119Y0077256D02*
X0116630D01*
X0112119Y0076356D02*
X0116630D01*
X0112119Y0075456D02*
X0116630D01*
X0112119Y0074556D02*
X0116630D01*
X0112119Y0073656D02*
X0116630D01*
X0112119Y0072756D02*
X0116630D01*
G54D11*
X0005000Y0005000D02*
Y0005500D01*
Y0005000D02*
X0005500D01*
X0005000D02*
Y0004500D01*
Y0005000D02*
X0004500D01*
X0006500D02*
X0009650D01*
X0005000Y0003500D02*
Y0000350D01*
Y0006500D02*
Y0009650D01*
X0000350Y0005000D02*
X0003500D01*
X0008000D02*
G75*
G03X0008000I-0003000D01*
G01X0007000D02*
G03X0007000I-0002000D01*
G01X0005000Y0145000D02*
Y0145500D01*
Y0145000D02*
X0005500D01*
X0005000D02*
Y0144500D01*
Y0145000D02*
X0004500D01*
X0006500D02*
X0009650D01*
X0005000Y0143500D02*
Y0140350D01*
Y0146500D02*
Y0149650D01*
X0000350Y0145000D02*
X0003500D01*
X0008000D02*
G03X0008000I-0003000D01*
G01X0007000D02*
G03X0007000I-0002000D01*
G01X0155000D02*
Y0145500D01*
Y0145000D02*
X0155500D01*
X0155000D02*
Y0144500D01*
Y0145000D02*
X0154500D01*
X0156500D02*
X0159650D01*
X0155000Y0143500D02*
Y0140350D01*
Y0146500D02*
Y0149650D01*
X0150350Y0145000D02*
X0153500D01*
X0158000D02*
G03X0158000I-0003000D01*
G01X0157000D02*
G03X0157000I-0002000D01*
G01X0155000Y0005000D02*
Y0005500D01*
Y0005000D02*
X0155500D01*
X0155000D02*
Y0004500D01*
Y0005000D02*
X0154500D01*
X0156500D02*
X0159650D01*
X0155000Y0003500D02*
Y0000350D01*
Y0006500D02*
Y0009650D01*
X0150350Y0005000D02*
X0153500D01*
X0158000D02*
G03X0158000I-0003000D01*
G01X0157000D02*
G03X0157000I-0002000D01*
G54D20*
G01X0060250Y0097500D02*
X0061050D01*
X0066450D02*
X0067250D01*
X0041500Y0033750D02*
X0042300D01*
X0047700D02*
X0048500D01*
X0041500Y0026875D02*
X0042300D01*
X0047700D02*
X0048500D01*
X0122050Y0062475D02*
X0121250D01*
X0115850D02*
X0115050D01*
X0100375Y0078750D02*
X0099575D01*
X0094175D02*
X0093375D01*
Y0071250D02*
X0094175D01*
X0099575D02*
X0100375D01*
X0093375Y0063750D02*
X0094175D01*
X0099575D02*
X0100375D01*
G54D21*
X0025000Y0115000D03*
Y0035000D03*
Y0025000D03*
X0135000Y0085000D03*
Y0065000D03*
X0105000Y0125000D03*
X0085000D03*
G54D22*
X0089500Y0112500D03*
X0100500D03*
G54D23*
X0025000Y0125000D03*
X0135000Y0025000D03*
G54D24*
X0114375Y0075000D03*
X0112918Y0072637D03*
X0115831D03*
Y0077362D03*
X0112918D03*
G54D25*
X0108626Y0078838D02*
X0109886D01*
X0108626Y0076279D02*
X0109886D01*
X0108626Y0073720D02*
X0109886D01*
X0108626Y0071161D02*
X0109886D01*
X0118863D02*
X0120123D01*
X0118863Y0073720D02*
X0120123D01*
X0118863Y0076279D02*
X0120123D01*
X0118863Y0078838D02*
X0120123D01*
G54D26*
X0067342Y0112500D02*
X0071279D01*
X0043720D02*
X0047657D01*
G74*
X0000000Y0000000D02*
M02*
