*
*
G04 PowerPCB (Build Number [351.51 ]) generated Gerber (RS-274-X) file*
G04 PC Version=2.1*
*
%IN "Tpa6211a1drb_inEVM1.pcb"*%
*
%MOIN*%
*
%FSLAX25Y25*%
*
*
*
*
G04 PC Standard Apertures*
*
*
G04 Thermal Relief Aperture macro.*
%AMTER*
1,1,$1,0,0*
1,0,$1-$2,0,0*
21,0,$3,$4,0,0,45*
21,0,$3,$4,0,0,135*
%
*
*
G04 Annular Aperture macro.*
%AMANN*
1,1,$1,0,0*
1,0,$2,0,0*
%
*
*
G04 Odd Aperture macro.*
%AMODD*
1,1,$1,0,0*
1,0,$1-0.005,0,0*
%
*
*
G04 PC Custom Aperture Macros*
*
*
*
*
*
*
G04 PC Aperture Table*
*
%ADD010C,0.01*%
%ADD011C,0.007*%
*
*
*
*
G04 PC Custom Flashes*
G04 Layer Name Tpa6211a1drb_inEVM1.pcb - flashes*
%LPD*%
*
*
G04 PC Circuitry*
G04 Layer Name Tpa6211a1drb_inEVM1.pcb - circuitry*
%LPD*%
*
G54D10*
G01X0033750Y0103750D02*
X0033650D01*
Y0103850*
X0033550*
Y0103950*
X0033350*
Y0104050*
X0033050*
Y0104150*
X0032350*
Y0104050*
X0032150*
Y0103950*
X0031850*
Y0103850*
X0031750*
Y0103750*
X0030250Y0102750D02*
X0030650Y0102550D01*
X0029950Y0102850D02*
X0030250Y0102750D01*
X0029950Y0102950D02*
Y0102850D01*
X0029650Y0102950D02*
X0029950D01*
X0029550Y0103350D02*
X0029650Y0102950D01*
X0029450Y0103350D02*
X0029550D01*
X0029450Y0106850D02*
Y0103350D01*
X0033850Y0103050D02*
Y0103450D01*
X0033750*
Y0103750*
X0031750D02*
Y0103450D01*
X0031550*
Y0102750*
X0031750*
X0033750D02*
X0033850D01*
Y0103050*
X0030650Y0102550D02*
X0029950Y0102850D01*
Y0102950*
X0029650*
X0029550Y0103350*
X0029450*
Y0106850*
X0036650Y0091850D02*
X0036150Y0091650D01*
X0036650Y0092050D02*
Y0091850D01*
X0039250Y0093050D02*
X0036650Y0092050D01*
X0039750Y0093650D02*
X0039250Y0093050D01*
X0040150Y0095250D02*
X0039750Y0093650D01*
X0039550Y0093250D02*
X0039950Y0093950D01*
Y0094550*
X0036050Y0091450D02*
Y0091550D01*
X0036250*
Y0091650*
X0036650Y0091850*
X0038750Y0092850*
X0039050*
Y0092950*
X0039550Y0093050*
Y0093250*
X0036050Y0102350D02*
X0037750Y0102250D01*
X0036050Y0102450D02*
Y0102350D01*
Y0102450D02*
X0035550D01*
X0036050Y0102350D02*
Y0102450D01*
X0037750Y0102250D02*
X0036050Y0102350D01*
X0035550Y0102450D02*
Y0102350D01*
X0039950Y0097450D02*
X0040050Y0097350D01*
X0039950Y0097650D02*
Y0097450D01*
X0039550Y0097950D02*
X0039950Y0097650D01*
X0038950Y0098950D02*
X0039550Y0097950D01*
X0039050Y0101750D02*
X0038950Y0098950D01*
Y0101750D02*
X0039050D01*
X0038950Y0101850D02*
Y0101750D01*
X0038450Y0101850D02*
X0038950D01*
X0038350Y0102050D02*
X0038450Y0101850D01*
X0038350D02*
Y0102050D01*
X0038950Y0101850D02*
X0038350D01*
X0038950Y0101750D02*
Y0101850D01*
X0039050Y0101750D02*
X0038950D01*
X0039050Y0101150D02*
Y0101750D01*
X0038950Y0101150D02*
X0039050D01*
X0038950Y0098850D02*
Y0101150D01*
X0039050Y0098850D02*
X0038950D01*
X0039050Y0098650D02*
Y0098850D01*
X0039150Y0098650D02*
X0039050D01*
X0040050Y0096750D02*
Y0097350D01*
X0040150Y0096750D02*
X0040050D01*
X0035750Y0099550D02*
X0035550D01*
X0035750Y0099750D02*
Y0099550D01*
X0040050Y0097350D02*
X0040150Y0095250D01*
X0039950Y0094550D02*
X0040050D01*
X0040150Y0096750*
X0040050Y0097350D02*
X0039950D01*
X0039850Y0097750*
X0039650*
X0039150Y0098650*
X0038350Y0102050D02*
X0037750Y0102150D01*
Y0102250*
Y0102150*
X0038350Y0102050*
X0034550Y0102250D02*
X0036050Y0102450D01*
X0031750Y0102750D02*
Y0102450D01*
Y0102350*
X0031850*
Y0102250*
X0032150*
X0033350D02*
X0033550D01*
Y0102350*
X0033650*
Y0102450*
X0033750*
Y0102750*
X0030550Y0102250D02*
X0030650D01*
Y0102550*
X0035550Y0102350D02*
X0034550Y0102250D01*
X0035350Y0098650D02*
X0035250Y0097750D01*
X0035550Y0098650D02*
X0035350D01*
X0035550Y0099550D02*
Y0098650D01*
X0035150Y0097550D02*
X0035750Y0099850D01*
X0035150Y0097750D02*
Y0097550D01*
X0035250Y0097750D02*
X0035150D01*
X0034050Y0099850D02*
X0034550Y0102250D01*
X0035750Y0099850D02*
X0034050D01*
X0033550Y0097550D02*
X0035150D01*
X0033450Y0096650D02*
X0033350D01*
X0033550Y0097550D02*
X0033450Y0096650D01*
X0035150Y0097550D02*
X0033550D01*
X0034050Y0099750D02*
X0035750D01*
X0034050Y0100050D02*
Y0099750D01*
X0034250Y0100050D02*
X0034050D01*
X0034350Y0101850D02*
X0034250Y0100050D01*
X0034550Y0101850D02*
X0034350D01*
X0033050Y0098650D02*
X0033250D01*
X0033350Y0099650*
X0033450*
X0033650Y0101150*
X0033750*
Y0101450*
X0034550Y0102250D02*
Y0101850D01*
X0033350Y0096650D02*
X0033250Y0095450D01*
X0033050*
X0029650Y0097050D02*
X0029750D01*
Y0097650*
X0027750*
X0027850Y0098450*
X0027950*
X0028050Y0099650*
X0028250*
Y0099850*
X0030250*
X0030350Y0100850*
X0030550*
Y0102250*
X0029450Y0095650D02*
X0029150Y0095150D01*
X0030150Y0096550D02*
X0030050Y0095550D01*
X0029950*
X0029250Y0095150D02*
X0029450Y0096050D01*
X0029150Y0095150D02*
X0029250D01*
X0032450Y0095050D02*
X0032550Y0096150D01*
X0032350Y0095050D02*
X0032450D01*
X0030350Y0097550D02*
X0030250Y0096550D01*
X0030550Y0097550D02*
X0030350D01*
X0030650Y0099050D02*
X0030550Y0097550D01*
X0030850Y0099050D02*
X0030650D01*
X0033350Y0102150D02*
Y0102250D01*
X0033050Y0102150D02*
X0033350D01*
X0033050Y0102050D02*
Y0102150D01*
X0032350Y0102050D02*
X0033050D01*
X0032350Y0102150D02*
Y0102050D01*
X0032150Y0102150D02*
X0032350D01*
X0032150Y0102250D02*
Y0102150D01*
X0029550Y0096050D02*
X0029650Y0097050D01*
X0029450Y0096050D02*
X0029550D01*
X0031250Y0101450D02*
X0031350D01*
X0033750*
X0031250*
X0033050Y0097650D02*
Y0098650D01*
X0032850Y0097650D02*
X0033050D01*
X0032650Y0096150D02*
X0032850Y0097650D01*
X0032550Y0096150D02*
X0032650D01*
X0030250Y0096550D02*
X0030150D01*
X0030850Y0099650D02*
Y0099050D01*
X0030950Y0099650D02*
X0030850D01*
X0031150Y0101150D02*
X0030950Y0099650D01*
X0031250Y0101150D02*
X0031150D01*
X0031250Y0101450D02*
Y0101150D01*
X0030650Y0102550D02*
X0030250Y0099950D01*
X0028250*
X0027750Y0097650*
X0029750*
X0029450Y0095650*
X0033050Y0094350D02*
X0032850D01*
X0033050Y0095450D02*
Y0094350D01*
X0035150Y0090750D02*
Y0090950D01*
X0036050Y0091450*
X0034350Y0090150D02*
X0033950Y0089050D01*
X0034550Y0090150D02*
X0034350D01*
X0034550Y0090350D02*
Y0090150D01*
X0036150Y0091650D02*
X0034550Y0090350D01*
X0033550Y0093250D02*
Y0093050D01*
X0033950Y0093250D02*
X0033550D01*
X0033650Y0091750D02*
X0033950Y0093250D01*
X0033550Y0091750D02*
X0033650D01*
X0033450Y0091550D02*
X0033550Y0091750D01*
X0033750Y0093050D02*
Y0093250D01*
X0033950Y0089050D02*
X0034050D01*
X0034250Y0089750*
X0034350*
Y0089950*
X0035150Y0090750*
X0033950Y0093250D02*
Y0092950D01*
X0033850*
X0033750Y0092050*
X0033650*
Y0091750*
X0033450Y0091550*
X0034050Y0087050D02*
X0034250D01*
X0034050Y0087550D02*
Y0087050D01*
X0033950Y0087550D02*
X0034050D01*
X0033950Y0089050D02*
Y0087550D01*
X0034250Y0087050D02*
X0034050D01*
X0033950Y0089050*
X0032750Y0093250D02*
X0033550Y0097550D01*
X0033050Y0093250D02*
X0032750D01*
X0033050Y0093050D02*
Y0093250D01*
X0033550Y0093050D02*
X0033050D01*
Y0091450D02*
X0033450Y0091550D01*
X0032550Y0091350D02*
X0033050Y0091450D01*
X0032550Y0091250D02*
Y0091350D01*
X0030650Y0091250D02*
X0032550D01*
X0029550Y0091750D02*
X0030650Y0091250D01*
X0028850Y0092850D02*
X0029550Y0091750D01*
X0028850Y0093850D02*
Y0092850D01*
X0028950Y0093950D02*
X0028850Y0093850D01*
X0029150Y0095150D02*
X0028950Y0093950D01*
X0029950Y0095550D02*
X0029750Y0094050D01*
X0029650*
Y0093850*
X0032150*
Y0094050*
X0032250*
X0032350Y0095050*
X0033750Y0101450D02*
X0032150Y0093850D01*
X0029650*
X0031250Y0101450*
X0028850Y0093250D02*
Y0093850D01*
X0028950*
X0029150Y0095150*
X0032850Y0094350D02*
X0032750Y0093250D01*
X0032850*
X0033050Y0092950*
X0033750Y0093050*
X0027650Y0090950D02*
X0028550Y0089150D01*
X0028650*
X0028750Y0088750*
X0028950*
X0029050Y0088250*
X0029450Y0088050*
Y0087850*
X0029550*
X0033450Y0091550D02*
X0032750Y0091450D01*
Y0091350*
X0032550*
Y0091250*
X0030550*
Y0091350*
X0029950Y0091450*
Y0091550*
X0029750*
X0029250Y0092050*
Y0092250*
X0029150*
X0028850Y0092850*
Y0093250*
X0030150Y0087050D02*
X0028550Y0089250D01*
X0029550Y0087850D02*
X0029650Y0087550D01*
X0029850*
Y0087350*
X0030150Y0087050*
X0034350Y0086450D02*
X0034250Y0087050D01*
X0033850Y0085950D02*
Y0085750D01*
X0034350Y0086050D02*
X0033850Y0085950D01*
X0034550Y0086250D02*
X0034350Y0086050D01*
X0034250Y0085750D02*
Y0085950D01*
X0034550Y0086050*
X0034350Y0086450*
Y0086250D02*
X0034550D01*
X0034250Y0087050D02*
X0034350Y0086250D01*
X0031750Y0086050D02*
X0030150Y0087050D01*
X0032650Y0085950D02*
X0031750Y0086050D01*
X0032650Y0085750D02*
Y0085950D01*
X0033850Y0085750D02*
X0032650D01*
X0030150Y0087050D02*
X0031450Y0086050D01*
X0032150Y0085950*
Y0085750*
X0034250*
X0028550Y0089250D02*
X0027350Y0091550D01*
Y0091450D02*
X0027450D01*
X0027550Y0090950*
X0027650*
X0025350Y0093050D02*
Y0093250D01*
X0025750D02*
Y0093050D01*
X0026650Y0092950*
X0027050Y0092250*
X0027350Y0091550D02*
X0026650Y0093050D01*
X0026350*
Y0093250*
X0025350*
X0025150*
X0027050Y0092250D02*
X0027350Y0091450D01*
X0019450Y0096350D02*
Y0096250D01*
X0023950Y0098550D02*
Y0106850D01*
X0018250Y0098550D02*
X0023950D01*
X0018350Y0097750D02*
X0018250Y0098550D01*
X0018550Y0097750D02*
X0018350D01*
X0018550Y0097350D02*
Y0097750D01*
X0018650Y0097350D02*
X0018550D01*
X0018650Y0097050D02*
Y0097350D01*
X0018750Y0097050D02*
X0018650D01*
X0018850Y0096750D02*
X0018750Y0097050D01*
X0018950Y0096750D02*
X0018850D01*
X0019050Y0096550D02*
X0018950Y0096750D01*
X0019450Y0096250D02*
X0019050Y0096550D01*
X0019150Y0096250D02*
X0019450D01*
X0018950Y0096650D02*
X0019150Y0096250D01*
X0018850Y0096650D02*
X0018950D01*
X0018850Y0097050D02*
Y0096650D01*
X0018650Y0097050D02*
X0018850D01*
X0018650Y0097250D02*
Y0097050D01*
X0018550Y0097250D02*
X0018650D01*
X0018550Y0097650D02*
Y0097250D01*
X0018350Y0097650D02*
X0018550D01*
X0018250Y0098550D02*
X0018350Y0097650D01*
X0023950Y0098550D02*
X0018250D01*
X0023950Y0106850D02*
Y0098550D01*
X0019450Y0096250D02*
X0020550Y0095150D01*
X0020750*
Y0094950*
X0020950Y0094850D02*
X0019450Y0096350D01*
X0020750Y0094950D02*
X0021550Y0093250D01*
X0021650*
X0021750Y0092850*
X0022050*
Y0092550*
X0022250*
X0022450Y0092250*
X0023250Y0092050*
Y0091850*
X0024150*
X0024350Y0092450*
X0024850Y0092850*
X0025050*
X0021450Y0093650D02*
X0020950Y0094850D01*
X0021550Y0093650D02*
X0021450D01*
X0021650Y0093050D02*
X0021550Y0093650D01*
X0021950Y0092950D02*
X0021650Y0093050D01*
X0022050Y0092650D02*
X0021950Y0092950D01*
X0022450Y0092450D02*
X0022050Y0092650D01*
X0022450Y0092350D02*
Y0092450D01*
X0023250Y0092050D02*
X0022450Y0092350D01*
X0024150Y0092050D02*
X0023250D01*
X0024250D02*
X0024150D01*
X0024350Y0092550D02*
X0024250Y0092050D01*
X0024850Y0092850D02*
X0024350Y0092550D01*
X0024850Y0092950D02*
Y0092850D01*
X0025050Y0092950D02*
X0024850D01*
X0025150Y0093250D02*
X0025050Y0092950D01*
X0025350Y0093050*
X0025050Y0092850D02*
Y0092950D01*
X0029450Y0106850D02*
X0023950D01*
X0029450*
X0036190Y0130860D02*
X0077440D01*
X0110000Y0083750D02*
G75*
G03X0110000I-0000625D01*
G01X0075000Y0101562D02*
Y0095000D01*
Y0101562D02*
X0077045D01*
X0077045D02*
X0077727Y0101250D01*
X0077954Y0100937*
X0077954D02*
X0078181Y0100312D01*
X0078181D02*
Y0099687D01*
X0078181D02*
X0077954Y0099062D01*
X0077954D02*
X0077727Y0098750D01*
X0077045Y0098437*
X0077045D02*
X0075000D01*
X0076590D02*
X0078181Y0095000D01*
X0080681Y0101562D02*
X0083181D01*
X0083181D02*
X0081818Y0099062D01*
X0081818D02*
X0082500D01*
X0082500D02*
X0082954Y0098750D01*
X0082954D02*
X0083181Y0098437D01*
X0083181D02*
X0083409Y0097500D01*
Y0096875*
X0083181Y0095937*
X0083181D02*
X0082727Y0095312D01*
X0082727D02*
X0082045Y0095000D01*
X0081363*
X0081363D02*
X0080681Y0095312D01*
X0080681D02*
X0080454Y0095625D01*
X0080454D02*
X0080227Y0096250D01*
X0059659Y0036875D02*
X0059431Y0037500D01*
X0059431D02*
X0058977Y0038125D01*
X0058522Y0038437*
X0058522D02*
X0057613D01*
X0057613D02*
X0057159Y0038125D01*
X0056704Y0037500*
X0056704D02*
X0056477Y0036875D01*
X0056250Y0035937*
X0056250D02*
Y0034375D01*
X0056477Y0033437*
X0056477D02*
X0056704Y0032812D01*
X0056704D02*
X0057159Y0032187D01*
X0057159D02*
X0057613Y0031875D01*
X0057613D02*
X0058522D01*
X0058522D02*
X0058977Y0032187D01*
X0058977D02*
X0059431Y0032812D01*
X0059431D02*
X0059659Y0033437D01*
X0061704Y0037187D02*
X0062159Y0037500D01*
X0062840Y0038437*
X0062840D02*
Y0031875D01*
X0059659Y0027500D02*
X0059431Y0028125D01*
X0059431D02*
X0058977Y0028750D01*
X0058522Y0029062*
X0058522D02*
X0057613D01*
X0057613D02*
X0057159Y0028750D01*
X0056704Y0028125*
X0056704D02*
X0056477Y0027500D01*
X0056250Y0026562*
X0056250D02*
Y0025000D01*
X0056477Y0024062*
X0056477D02*
X0056704Y0023437D01*
X0056704D02*
X0057159Y0022812D01*
X0057159D02*
X0057613Y0022500D01*
X0057613D02*
X0058522D01*
X0058522D02*
X0058977Y0022812D01*
X0058977D02*
X0059431Y0023437D01*
X0059431D02*
X0059659Y0024062D01*
X0061931Y0027500D02*
Y0027812D01*
X0061931D02*
X0062159Y0028437D01*
X0062159D02*
X0062386Y0028750D01*
X0062840Y0029062*
X0062840D02*
X0063750D01*
X0063750D02*
X0064204Y0028750D01*
X0064204D02*
X0064431Y0028437D01*
X0064431D02*
X0064659Y0027812D01*
X0064659D02*
Y0027187D01*
X0064659D02*
X0064431Y0026562D01*
X0064431D02*
X0063977Y0025625D01*
X0061704Y0022500*
X0061704D02*
X0064886D01*
X0105909Y0060000D02*
X0105681Y0060625D01*
X0105681D02*
X0105227Y0061250D01*
X0104772Y0061562*
X0104772D02*
X0103863D01*
X0103863D02*
X0103409Y0061250D01*
X0102954Y0060625*
X0102954D02*
X0102727Y0060000D01*
X0102500Y0059062*
X0102500D02*
Y0057500D01*
X0102727Y0056562*
X0102727D02*
X0102954Y0055937D01*
X0102954D02*
X0103409Y0055312D01*
X0103409D02*
X0103863Y0055000D01*
X0103863D02*
X0104772D01*
X0104772D02*
X0105227Y0055312D01*
X0105227D02*
X0105681Y0055937D01*
X0105681D02*
X0105909Y0056562D01*
X0108409Y0061562D02*
X0110909D01*
X0110909D02*
X0109545Y0059062D01*
X0109545D02*
X0110227D01*
X0110227D02*
X0110681Y0058750D01*
X0110681D02*
X0110909Y0058437D01*
X0110909D02*
X0111136Y0057500D01*
Y0056875*
X0110909Y0055937*
X0110909D02*
X0110454Y0055312D01*
X0110454D02*
X0109772Y0055000D01*
X0109772D02*
X0109090D01*
X0109090D02*
X0108409Y0055312D01*
X0108409D02*
X0108181Y0055625D01*
X0108181D02*
X0107954Y0056250D01*
X0081534Y0081875D02*
X0081306Y0082500D01*
X0081306D02*
X0080852Y0083125D01*
X0080397Y0083437*
X0080397D02*
X0079488D01*
X0079488D02*
X0079034Y0083125D01*
X0078579Y0082500*
X0078579D02*
X0078352Y0081875D01*
X0078125Y0080937*
X0078125D02*
Y0079375D01*
X0078352Y0078437*
X0078352D02*
X0078579Y0077812D01*
X0078579D02*
X0079034Y0077187D01*
X0079034D02*
X0079488Y0076875D01*
X0079488D02*
X0080397D01*
X0080397D02*
X0080852Y0077187D01*
X0080852D02*
X0081306Y0077812D01*
X0081306D02*
X0081534Y0078437D01*
X0086534Y0083437D02*
X0084261D01*
X0084261D02*
X0084034Y0080625D01*
X0084261Y0080937*
X0084261D02*
X0084943Y0081250D01*
X0085625*
X0086306Y0080937*
X0086306D02*
X0086761Y0080312D01*
X0086761D02*
X0086988Y0079375D01*
X0086988D02*
X0086761Y0078750D01*
X0086534Y0077812*
X0086534D02*
X0086079Y0077187D01*
X0086079D02*
X0085397Y0076875D01*
X0085397D02*
X0084715D01*
X0084715D02*
X0084034Y0077187D01*
X0084034D02*
X0083806Y0077500D01*
X0083806D02*
X0083579Y0078125D01*
X0113409Y0115000D02*
X0113181Y0115625D01*
X0113181D02*
X0112727Y0116250D01*
X0112272Y0116562*
X0112272D02*
X0111363D01*
X0111363D02*
X0110909Y0116250D01*
X0110454Y0115625*
X0110454D02*
X0110227Y0115000D01*
X0110000Y0114062*
X0110000D02*
Y0112500D01*
X0110227Y0111562*
X0110227D02*
X0110454Y0110937D01*
X0110454D02*
X0110909Y0110312D01*
X0110909D02*
X0111363Y0110000D01*
X0111363D02*
X0112272D01*
X0112272D02*
X0112727Y0110312D01*
X0112727D02*
X0113181Y0110937D01*
X0113181D02*
X0113409Y0111562D01*
X0117727Y0116562D02*
X0115454Y0112187D01*
X0115454D02*
X0118863D01*
X0117727Y0116562D02*
Y0110000D01*
X0107500Y0094062D02*
Y0089374D01*
X0107500D02*
X0107727Y0088437D01*
X0108181Y0087812*
X0108181D02*
X0108863Y0087499D01*
X0108863D02*
X0109318D01*
X0109318D02*
X0110000Y0087812D01*
X0110454Y0088437*
X0110454D02*
X0110681Y0089374D01*
X0110681D02*
Y0094062D01*
X0112727Y0092812D02*
X0113181Y0093124D01*
X0113181D02*
X0113863Y0094062D01*
X0113863D02*
Y0087499D01*
X0079227Y0074320D02*
Y0067758D01*
Y0074320D02*
X0081272D01*
X0081272D02*
X0081954Y0074008D01*
X0082181Y0073695*
X0082181D02*
X0082408Y0073070D01*
X0082408D02*
Y0072445D01*
X0082408D02*
X0082181Y0071820D01*
X0082181D02*
X0081954Y0071508D01*
X0081272Y0071195*
X0081272D02*
X0079227D01*
X0080817D02*
X0082408Y0067758D01*
X0084454Y0073070D02*
X0084908Y0073383D01*
X0084908D02*
X0085590Y0074320D01*
X0085590D02*
Y0067758D01*
X0079375Y0065312D02*
Y0058750D01*
Y0065312D02*
X0081420D01*
X0081420D02*
X0082102Y0065000D01*
X0082329Y0064687*
X0082329D02*
X0082556Y0064062D01*
X0082556D02*
Y0063437D01*
X0082556D02*
X0082329Y0062812D01*
X0082329D02*
X0082102Y0062500D01*
X0081420Y0062187*
X0081420D02*
X0079375D01*
X0080965D02*
X0082556Y0058750D01*
X0084829Y0063750D02*
Y0064062D01*
X0084829D02*
X0085056Y0064687D01*
X0085056D02*
X0085284Y0065000D01*
X0085738Y0065312*
X0085738D02*
X0086647D01*
X0086647D02*
X0087102Y0065000D01*
X0087329Y0064687*
X0087329D02*
X0087556Y0064062D01*
X0087556D02*
Y0063437D01*
X0087556D02*
X0087329Y0062812D01*
X0087329D02*
X0086875Y0061875D01*
X0084602Y0058750*
X0087784*
X0035681Y0115625D02*
X0035227Y0116250D01*
X0034545Y0116562*
X0034545D02*
X0033636D01*
X0033636D02*
X0032954Y0116250D01*
X0032954D02*
X0032500Y0115625D01*
Y0115000*
X0032727Y0114375*
X0032954Y0114062*
X0032954D02*
X0033409Y0113750D01*
X0034772Y0113125*
X0034772D02*
X0035227Y0112812D01*
X0035227D02*
X0035454Y0112500D01*
X0035454D02*
X0035681Y0111875D01*
X0035681D02*
Y0110937D01*
X0035681D02*
X0035227Y0110312D01*
X0035227D02*
X0034545Y0110000D01*
X0033636*
X0032954Y0110312*
X0032954D02*
X0032500Y0110937D01*
X0037727Y0115312D02*
X0038181Y0115625D01*
X0038181D02*
X0038863Y0116562D01*
X0038863D02*
Y0110000D01*
X0019715Y0082187D02*
Y0075625D01*
X0018125Y0082187D02*
X0021306D01*
X0023352D02*
Y0075625D01*
Y0082187D02*
X0026306D01*
X0023352Y0079062D02*
X0025170D01*
X0023352Y0075625D02*
X0026306D01*
X0028352Y0082187D02*
X0031534Y0075625D01*
Y0082187D02*
X0028352Y0075625D01*
X0035397Y0082187D02*
X0033579Y0075625D01*
X0035397Y0082187D02*
X0037215Y0075625D01*
X0034261Y0077812D02*
X0036534D01*
X0042443Y0081250D02*
X0041988Y0081875D01*
X0041988D02*
X0041306Y0082187D01*
X0041306D02*
X0040397D01*
X0040397D02*
X0039715Y0081875D01*
X0039715D02*
X0039261Y0081250D01*
Y0080625*
X0039488Y0080000*
X0039488D02*
X0039715Y0079687D01*
X0039715D02*
X0040170Y0079375D01*
X0041534Y0078750*
X0041988Y0078437*
X0041988D02*
X0042215Y0078125D01*
X0042215D02*
X0042443Y0077500D01*
Y0076562*
X0042443D02*
X0041988Y0075937D01*
X0041988D02*
X0041306Y0075625D01*
X0041306D02*
X0040397D01*
X0040397D02*
X0039715Y0075937D01*
X0039715D02*
X0039261Y0076562D01*
X0019715Y0061562D02*
Y0055000D01*
X0018125Y0061562D02*
X0021306D01*
X0023352D02*
Y0055000D01*
Y0061562D02*
X0025397D01*
X0025397D02*
X0026079Y0061250D01*
X0026079D02*
X0026306Y0060937D01*
X0026306D02*
X0026534Y0060312D01*
X0026534D02*
Y0059375D01*
X0026306Y0058750*
X0026306D02*
X0026079Y0058437D01*
X0026079D02*
X0025397Y0058125D01*
X0025397D02*
X0023352D01*
X0030397Y0061562D02*
X0028579Y0055000D01*
X0030397Y0061562D02*
X0032215Y0055000D01*
X0029261Y0057187D02*
X0031534D01*
X0036988Y0060625D02*
X0036761Y0061250D01*
X0036079Y0061562*
X0036079D02*
X0035625D01*
X0035625D02*
X0034943Y0061250D01*
X0034488Y0060312*
X0034488D02*
X0034261Y0058750D01*
Y0057187*
X0034261D02*
X0034488Y0055937D01*
X0034488D02*
X0034943Y0055312D01*
X0034943D02*
X0035625Y0055000D01*
X0035852*
X0036534Y0055312*
X0036534D02*
X0036988Y0055937D01*
X0036988D02*
X0037215Y0056875D01*
X0037215D02*
Y0057187D01*
X0037215D02*
X0036988Y0058125D01*
X0036988D02*
X0036534Y0058750D01*
X0035852Y0059062*
X0035852D02*
X0035625D01*
X0035625D02*
X0034943Y0058750D01*
X0034488Y0058125*
X0034488D02*
X0034261Y0057187D01*
X0039488Y0060000D02*
Y0060312D01*
X0039488D02*
X0039715Y0060937D01*
X0039715D02*
X0039943Y0061250D01*
X0040397Y0061562*
X0040397D02*
X0041306D01*
X0041306D02*
X0041761Y0061250D01*
X0041988Y0060937*
X0041988D02*
X0042215Y0060312D01*
X0042215D02*
Y0059687D01*
X0042215D02*
X0041988Y0059062D01*
X0041988D02*
X0041534Y0058125D01*
X0039261Y0055000*
X0042443*
X0044488Y0060312D02*
X0044943Y0060625D01*
X0045625Y0061562*
X0045625D02*
Y0055000D01*
X0047670Y0060312D02*
X0048125Y0060625D01*
X0048806Y0061562*
X0048806D02*
Y0055000D01*
X0052670Y0061562D02*
X0050852Y0055000D01*
X0052670Y0061562D02*
X0054488Y0055000D01*
X0051534Y0057187D02*
X0053806D01*
X0056534Y0060312D02*
X0056988Y0060625D01*
X0056988D02*
X0057670Y0061562D01*
X0057670D02*
Y0055000D01*
X0059715Y0061562D02*
Y0055000D01*
Y0061562D02*
X0062670D01*
X0059715Y0058437D02*
X0061534D01*
X0059715Y0055000D02*
X0062670D01*
X0064715Y0061562D02*
X0066534Y0055000D01*
X0068352Y0061562D02*
X0066534Y0055000D01*
X0070397Y0061562D02*
Y0055000D01*
Y0061562D02*
X0072215Y0055000D01*
X0074034Y0061562D02*
X0072215Y0055000D01*
X0074034Y0061562D02*
Y0055000D01*
X0039206Y0127790D02*
X0038752Y0128415D01*
X0038070Y0128727*
X0038070D02*
X0037161D01*
X0037161D02*
X0036479Y0128415D01*
X0036479D02*
X0036025Y0127790D01*
Y0127165*
X0036252Y0126540*
X0036479Y0126227*
X0036479D02*
X0036934Y0125915D01*
X0038297Y0125290*
X0038297D02*
X0038752Y0124977D01*
X0038752D02*
X0038979Y0124665D01*
X0038979D02*
X0039206Y0124040D01*
X0039206D02*
Y0123102D01*
X0039206D02*
X0038752Y0122477D01*
X0038752D02*
X0038070Y0122165D01*
X0037161*
X0036479Y0122477*
X0036479D02*
X0036025Y0123102D01*
X0041252Y0128727D02*
Y0122165D01*
X0044434Y0128727D02*
Y0122165D01*
X0041252Y0125602D02*
X0044434D01*
X0046479Y0128727D02*
Y0124040D01*
X0046479D02*
X0046706Y0123102D01*
X0046706D02*
X0047161Y0122477D01*
X0047161D02*
X0047843Y0122165D01*
X0048297*
X0048297D02*
X0048979Y0122477D01*
X0048979D02*
X0049434Y0123102D01*
X0049434D02*
X0049661Y0124040D01*
Y0128727*
X0053297D02*
Y0122165D01*
X0051706Y0128727D02*
X0054888D01*
X0056934D02*
Y0122165D01*
Y0128727D02*
X0058525D01*
X0058525D02*
X0059206Y0128415D01*
X0059206D02*
X0059661Y0127790D01*
X0059888Y0127165*
X0059888D02*
X0060115Y0126227D01*
X0060115D02*
Y0124665D01*
X0060115D02*
X0059888Y0123727D01*
X0059888D02*
X0059661Y0123102D01*
X0059661D02*
X0059206Y0122477D01*
X0059206D02*
X0058525Y0122165D01*
X0056934*
X0063525Y0128727D02*
X0063070Y0128415D01*
X0062615Y0127790*
X0062615D02*
X0062388Y0127165D01*
X0062388D02*
X0062161Y0126227D01*
X0062161D02*
Y0124665D01*
X0062388Y0123727*
X0062388D02*
X0062615Y0123102D01*
X0062615D02*
X0063070Y0122477D01*
X0063070D02*
X0063525Y0122165D01*
X0064434*
X0064888Y0122477*
X0064888D02*
X0065343Y0123102D01*
X0065343D02*
X0065570Y0123727D01*
X0065570D02*
X0065797Y0124665D01*
X0065797D02*
Y0126227D01*
X0065797D02*
X0065570Y0127165D01*
X0065343Y0127790*
X0064888Y0128415*
X0064888D02*
X0064434Y0128727D01*
X0064434D02*
X0063525D01*
X0067843D02*
X0068979Y0122165D01*
X0070115Y0128727D02*
X0068979Y0122165D01*
X0070115Y0128727D02*
X0071252Y0122165D01*
X0072388Y0128727D02*
X0071252Y0122165D01*
X0074434Y0128727D02*
Y0122165D01*
Y0128727D02*
X0077615Y0122165D01*
Y0128727D02*
Y0122165D01*
X0121988Y0056562D02*
X0121534Y0056250D01*
X0121079Y0055625*
X0121079D02*
X0120852Y0055000D01*
X0120625Y0054062*
X0120625D02*
Y0052500D01*
X0120852Y0051562*
X0120852D02*
X0121079Y0050937D01*
X0121079D02*
X0121534Y0050312D01*
X0121534D02*
X0121988Y0050000D01*
X0121988D02*
X0122897D01*
X0122897D02*
X0123352Y0050312D01*
X0123352D02*
X0123806Y0050937D01*
X0123806D02*
X0124034Y0051562D01*
X0124034D02*
X0124261Y0052500D01*
Y0054062*
X0124261D02*
X0124034Y0055000D01*
X0123806Y0055625*
X0123806D02*
X0123352Y0056250D01*
X0122897Y0056562*
X0122897D02*
X0121988D01*
X0126306D02*
Y0051875D01*
X0126306D02*
X0126534Y0050937D01*
X0126534D02*
X0126988Y0050312D01*
X0126988D02*
X0127670Y0050000D01*
X0128125*
X0128806Y0050312*
X0128806D02*
X0129261Y0050937D01*
X0129261D02*
X0129488Y0051875D01*
X0129488D02*
Y0056562D01*
X0133125D02*
Y0050000D01*
X0131534Y0056562D02*
X0134715D01*
X0138806Y0055625D02*
Y0050000D01*
X0136761Y0052812D02*
X0140852D01*
X0121363Y0097187D02*
X0120909Y0096875D01*
X0120454Y0096250*
X0120454D02*
X0120227Y0095625D01*
X0120000Y0094687*
X0120000D02*
Y0093125D01*
X0120227Y0092187*
X0120227D02*
X0120454Y0091562D01*
X0120454D02*
X0120909Y0090937D01*
X0120909D02*
X0121363Y0090625D01*
X0121363D02*
X0122272D01*
X0122272D02*
X0122727Y0090937D01*
X0122727D02*
X0123181Y0091562D01*
X0123181D02*
X0123409Y0092187D01*
X0123409D02*
X0123636Y0093125D01*
Y0094687*
X0123636D02*
X0123409Y0095625D01*
X0123181Y0096250*
X0123181D02*
X0122727Y0096875D01*
X0122272Y0097187*
X0122272D02*
X0121363D01*
X0125681D02*
Y0092500D01*
X0125681D02*
X0125909Y0091562D01*
X0125909D02*
X0126363Y0090937D01*
X0126363D02*
X0127045Y0090625D01*
X0127500*
X0128181Y0090937*
X0128181D02*
X0128636Y0091562D01*
X0128636D02*
X0128863Y0092500D01*
X0128863D02*
Y0097187D01*
X0132500D02*
Y0090625D01*
X0130909Y0097187D02*
X0134090D01*
X0136136Y0093437D02*
X0140227D01*
X0112114Y0131415D02*
X0111886Y0132040D01*
X0111886D02*
X0111432Y0132665D01*
X0110977Y0132977*
X0110977D02*
X0110068D01*
X0110068D02*
X0109614Y0132665D01*
X0109159Y0132040*
X0109159D02*
X0108932Y0131415D01*
X0108705Y0130477*
X0108705D02*
Y0128915D01*
X0108932Y0127977*
X0108932D02*
X0109159Y0127352D01*
X0109159D02*
X0109614Y0126727D01*
X0109614D02*
X0110068Y0126415D01*
X0110068D02*
X0110977D01*
X0110977D02*
X0111432Y0126727D01*
X0111432D02*
X0111886Y0127352D01*
X0111886D02*
X0112114Y0127977D01*
X0112114D02*
Y0128915D01*
X0110977D02*
X0112114D01*
X0114159Y0132977D02*
Y0126415D01*
Y0132977D02*
X0117341Y0126415D01*
Y0132977D02*
Y0126415D01*
X0119386Y0132977D02*
Y0126415D01*
Y0132977D02*
X0120977D01*
X0120977D02*
X0121659Y0132665D01*
X0121659D02*
X0122114Y0132040D01*
X0122341Y0131415*
X0122568Y0130477*
X0122568D02*
Y0128915D01*
X0122568D02*
X0122341Y0127977D01*
X0122341D02*
X0122114Y0127352D01*
X0122114D02*
X0121659Y0126727D01*
X0121659D02*
X0120977Y0126415D01*
X0120977D02*
X0119386D01*
X0087440Y0133362D02*
X0089258Y0126800D01*
X0091076Y0133362D02*
X0089258Y0126800D01*
X0093121Y0133362D02*
Y0126800D01*
Y0133362D02*
X0094712D01*
X0094712D02*
X0095394Y0133050D01*
X0095394D02*
X0095849Y0132425D01*
X0096076Y0131800*
X0096303Y0130862*
X0096303D02*
Y0129300D01*
X0096303D02*
X0096076Y0128362D01*
X0096076D02*
X0095849Y0127737D01*
X0095849D02*
X0095394Y0127112D01*
X0095394D02*
X0094712Y0126800D01*
X0094712D02*
X0093121D01*
X0098349Y0133362D02*
Y0126800D01*
Y0133362D02*
X0099940D01*
X0099940D02*
X0100621Y0133050D01*
X0100621D02*
X0101076Y0132425D01*
X0101303Y0131800*
X0101303D02*
X0101530Y0130862D01*
X0101530D02*
Y0129300D01*
X0101530D02*
X0101303Y0128362D01*
X0101303D02*
X0101076Y0127737D01*
X0101076D02*
X0100621Y0127112D01*
X0100621D02*
X0099940Y0126800D01*
X0098349*
X0029375Y0022812D02*
Y0016250D01*
X0031420Y0022812D02*
Y0016250D01*
Y0022812D02*
X0034602Y0016250D01*
Y0022812D02*
Y0016250D01*
X0038693Y0021875D02*
Y0016250D01*
X0036647Y0019062D02*
X0040738D01*
X0029375Y0043437D02*
Y0036875D01*
X0031420Y0043437D02*
Y0036875D01*
Y0043437D02*
X0034602Y0036875D01*
Y0043437D02*
Y0036875D01*
X0036647Y0039687D02*
X0040738D01*
X0019375Y0072187D02*
Y0065625D01*
X0021420Y0072187D02*
Y0065625D01*
Y0072187D02*
X0024602Y0065625D01*
Y0072187D02*
Y0065625D01*
X0029829Y0071250D02*
X0029375Y0071875D01*
X0028693Y0072187*
X0028693D02*
X0027784D01*
X0027784D02*
X0027102Y0071875D01*
X0026647Y0071250*
X0026647D02*
Y0070625D01*
X0026647D02*
X0026875Y0070000D01*
X0027102Y0069687*
X0027102D02*
X0027556Y0069375D01*
X0027556D02*
X0028920Y0068750D01*
X0029375Y0068437*
X0029375D02*
X0029602Y0068125D01*
X0029829Y0067500*
X0029829D02*
Y0066562D01*
X0029829D02*
X0029375Y0065937D01*
X0029375D02*
X0028693Y0065625D01*
X0027784*
X0027102Y0065937*
X0027102D02*
X0026647Y0066562D01*
X0033465Y0072187D02*
Y0065625D01*
X0031875Y0072187D02*
X0035056D01*
X0037102D02*
Y0065625D01*
Y0072187D02*
X0039147D01*
X0039147D02*
X0039829Y0071875D01*
X0039829D02*
X0040056Y0071562D01*
X0040056D02*
X0040284Y0070937D01*
X0040284D02*
Y0070312D01*
X0040284D02*
X0040056Y0069687D01*
X0040056D02*
X0039829Y0069375D01*
X0039829D02*
X0039147Y0069062D01*
X0039147D02*
X0037102D01*
X0038693D02*
X0040284Y0065625D01*
X0042329Y0072187D02*
Y0067500D01*
X0042329D02*
X0042556Y0066562D01*
X0042556D02*
X0043011Y0065937D01*
X0043011D02*
X0043693Y0065625D01*
X0044147*
X0044147D02*
X0044829Y0065937D01*
X0044829D02*
X0045284Y0066562D01*
X0045284D02*
X0045511Y0067500D01*
Y0072187*
X0047556D02*
Y0065625D01*
Y0072187D02*
X0049375Y0065625D01*
X0051193Y0072187D02*
X0049375Y0065625D01*
X0051193Y0072187D02*
Y0065625D01*
X0053238Y0072187D02*
Y0065625D01*
Y0072187D02*
X0056193D01*
X0053238Y0069062D02*
X0055056D01*
X0053238Y0065625D02*
X0056193D01*
X0058238Y0072187D02*
Y0065625D01*
Y0072187D02*
X0061420Y0065625D01*
Y0072187D02*
Y0065625D01*
X0065056Y0072187D02*
Y0065625D01*
X0063465Y0072187D02*
X0066647D01*
X0071875Y0071250D02*
X0071420Y0071875D01*
X0070738Y0072187*
X0070738D02*
X0069829D01*
X0069829D02*
X0069147Y0071875D01*
X0069147D02*
X0068693Y0071250D01*
Y0070625*
X0068920Y0070000*
X0069147Y0069687*
X0069147D02*
X0069602Y0069375D01*
X0070965Y0068750*
X0070965D02*
X0071420Y0068437D01*
X0071420D02*
X0071647Y0068125D01*
X0071647D02*
X0071875Y0067500D01*
Y0066562*
X0071875D02*
X0071420Y0065937D01*
X0071420D02*
X0070738Y0065625D01*
X0070738D02*
X0069829D01*
X0069829D02*
X0069147Y0065937D01*
X0069147D02*
X0068693Y0066562D01*
X0079445Y0115025D02*
Y0109400D01*
X0077400Y0112212D02*
X0081490D01*
X0085227Y0027500D02*
X0085000Y0028125D01*
X0084318Y0028437*
X0084318D02*
X0083863D01*
X0083863D02*
X0083181Y0028125D01*
X0083181D02*
X0082727Y0027187D01*
X0082727D02*
X0082500Y0025625D01*
Y0024062*
X0082500D02*
X0082727Y0022812D01*
X0082727D02*
X0083181Y0022187D01*
X0083181D02*
X0083863Y0021875D01*
X0083863D02*
X0084090D01*
X0084090D02*
X0084772Y0022187D01*
X0084772D02*
X0085227Y0022812D01*
X0085227D02*
X0085454Y0023750D01*
X0085454D02*
Y0024062D01*
X0085454D02*
X0085227Y0025000D01*
X0084772Y0025625*
X0084772D02*
X0084090Y0025937D01*
X0084090D02*
X0083863D01*
X0083863D02*
X0083181Y0025625D01*
X0083181D02*
X0082727Y0025000D01*
X0082500Y0024062*
X0089772Y0028437D02*
X0087500Y0024062D01*
X0087500D02*
X0090909D01*
X0089772Y0028437D02*
Y0021875D01*
X0095909Y0028437D02*
X0093636D01*
X0093636D02*
X0093409Y0025625D01*
X0093636Y0025937*
X0093636D02*
X0094318Y0026250D01*
X0095000*
X0095681Y0025937*
X0095681D02*
X0096136Y0025312D01*
X0096136D02*
X0096363Y0024375D01*
X0096363D02*
X0096136Y0023750D01*
X0095909Y0022812*
X0095909D02*
X0095454Y0022187D01*
X0095454D02*
X0094772Y0021875D01*
X0094772D02*
X0094090D01*
X0094090D02*
X0093409Y0022187D01*
X0093409D02*
X0093181Y0022500D01*
X0093181D02*
X0092954Y0023125D01*
X0099772Y0028437D02*
X0099090Y0028125D01*
X0099090D02*
X0098636Y0027187D01*
X0098636D02*
X0098409Y0025625D01*
Y0024687*
X0098409D02*
X0098636Y0023125D01*
X0099090Y0022187*
X0099090D02*
X0099772Y0021875D01*
X0099772D02*
X0100227D01*
X0100909Y0022187*
X0100909D02*
X0101363Y0023125D01*
X0101363D02*
X0101590Y0024687D01*
X0101590D02*
Y0025625D01*
X0101590D02*
X0101363Y0027187D01*
X0101363D02*
X0100909Y0028125D01*
X0100227Y0028437*
X0100227D02*
X0099772D01*
X0106590Y0026250D02*
X0106363Y0025312D01*
X0106363D02*
X0105909Y0024687D01*
X0105909D02*
X0105227Y0024375D01*
X0105000*
X0104318Y0024687*
X0104318D02*
X0103863Y0025312D01*
X0103863D02*
X0103636Y0026250D01*
Y0026562*
X0103636D02*
X0103863Y0027500D01*
X0103863D02*
X0104318Y0028125D01*
X0105000Y0028437*
X0105000D02*
X0105227D01*
X0105227D02*
X0105909Y0028125D01*
X0106363Y0027500*
X0106363D02*
X0106590Y0026250D01*
X0106590D02*
Y0024687D01*
X0106590D02*
X0106363Y0023125D01*
X0106363D02*
X0105909Y0022187D01*
X0105909D02*
X0105227Y0021875D01*
X0104772*
X0104772D02*
X0104090Y0022187D01*
X0104090D02*
X0103863Y0022812D01*
X0109090Y0028437D02*
X0111590D01*
X0111590D02*
X0110227Y0025937D01*
X0110227D02*
X0110909D01*
X0110909D02*
X0111363Y0025625D01*
X0111363D02*
X0111590Y0025312D01*
X0111590D02*
X0111818Y0024375D01*
Y0023750*
X0111590Y0022812*
X0111590D02*
X0111136Y0022187D01*
X0111136D02*
X0110454Y0021875D01*
X0110454D02*
X0109772D01*
X0109772D02*
X0109090Y0022187D01*
X0109090D02*
X0108863Y0022500D01*
X0108863D02*
X0108636Y0023125D01*
X0117045Y0028437D02*
X0114772Y0021875D01*
X0113863Y0028437D02*
X0117045D01*
G54D11*
X0005000Y0005000D02*
Y0005500D01*
Y0005000D02*
X0005500D01*
X0005000D02*
Y0004500D01*
Y0005000D02*
X0004500D01*
X0006500D02*
X0009650D01*
X0005000Y0003500D02*
Y0000350D01*
Y0006500D02*
Y0009650D01*
X0000350Y0005000D02*
X0003500D01*
X0008000D02*
G03X0008000I-0003000D01*
G01X0007000D02*
G03X0007000I-0002000D01*
G01X0005000Y0145000D02*
Y0145500D01*
Y0145000D02*
X0005500D01*
X0005000D02*
Y0144500D01*
Y0145000D02*
X0004500D01*
X0006500D02*
X0009650D01*
X0005000Y0143500D02*
Y0140350D01*
Y0146500D02*
Y0149650D01*
X0000350Y0145000D02*
X0003500D01*
X0008000D02*
G03X0008000I-0003000D01*
G01X0007000D02*
G03X0007000I-0002000D01*
G01X0155000D02*
Y0145500D01*
Y0145000D02*
X0155500D01*
X0155000D02*
Y0144500D01*
Y0145000D02*
X0154500D01*
X0156500D02*
X0159650D01*
X0155000Y0143500D02*
Y0140350D01*
Y0146500D02*
Y0149650D01*
X0150350Y0145000D02*
X0153500D01*
X0158000D02*
G03X0158000I-0003000D01*
G01X0157000D02*
G03X0157000I-0002000D01*
G01X0155000Y0005000D02*
Y0005500D01*
Y0005000D02*
X0155500D01*
X0155000D02*
Y0004500D01*
Y0005000D02*
X0154500D01*
X0156500D02*
X0159650D01*
X0155000Y0003500D02*
Y0000350D01*
Y0006500D02*
Y0009650D01*
X0150350Y0005000D02*
X0153500D01*
X0158000D02*
G03X0158000I-0003000D01*
G01X0157000D02*
G03X0157000I-0002000D01*
G74*
G01X0000000Y0000000D02*
M02*
